<svg id="Layer_1" data-name="Layer 1" xmlns="http://www.w3.org/2000/svg" xmlns:xlink="http://www.w3.org/1999/xlink" viewBox="0 0 1547.13 622.92"><defs><style>.cls-1,.cls-30,.cls-34,.cls-35{fill:none;}.cls-2{fill:#595657;}.cls-3{fill:#302c2d;}.cls-4{fill:#8a8889;}.cls-5{fill:#918f8f;}.cls-6{fill:#a7a9ac;}.cls-7{fill:#414042;}.cls-8{fill:#4eacae;}.cls-9{fill:#346b6b;}.cls-10,.cls-39,.cls-40,.cls-41{fill:#f76349;}.cls-11{fill:#f49e92;}.cls-12,.cls-14,.cls-19,.cls-20,.cls-27,.cls-31,.cls-36,.cls-37,.cls-39{opacity:0.5;}.cls-12,.cls-13,.cls-14,.cls-15,.cls-17,.cls-18,.cls-19,.cls-20,.cls-21,.cls-27,.cls-28,.cls-31,.cls-32,.cls-36,.cls-37,.cls-38,.cls-39,.cls-40,.cls-41,.cls-44{isolation:isolate;}.cls-12{fill:url(#linear-gradient);}.cls-13,.cls-28,.cls-32{opacity:0.68;}.cls-13{fill:url(#linear-gradient-2);}.cls-14{fill:url(#linear-gradient-3);}.cls-15{opacity:0.12;fill:url(#linear-gradient-4);}.cls-16,.cls-19,.cls-21,.cls-38{fill:#4cabad;}.cls-17{opacity:0.79;fill:url(#linear-gradient-5);}.cls-18{opacity:0.76;fill:url(#linear-gradient-6);}.cls-20{fill:#c2e6e8;}.cls-21,.cls-40{opacity:0.2;}.cls-22,.cls-27,.cls-28{fill:#f1634b;}.cls-23{fill:#c0eded;}.cls-24,.cls-36{fill:#bc4a3b;}.cls-25{clip-path:url(#clip-path);}.cls-26{fill:#14646d;}.cls-29,.cls-37{fill:#f49e91;}.cls-30{stroke:#4cabad;}.cls-30,.cls-34{stroke-linecap:round;}.cls-30,.cls-34,.cls-35{stroke-miterlimit:10;stroke-width:3px;}.cls-31,.cls-32{fill:#ef634b;}.cls-33{fill:#4eabad;}.cls-34,.cls-35{stroke:#f1634b;}.cls-38{opacity:0.77;}.cls-41{font-size:43.08px;letter-spacing:0.04em;}.cls-41,.cls-44{font-family:ProximaNova-Regular, Proxima Nova;}.cls-42{fill:#f2634b;}.cls-43,.cls-44{fill:#3a8283;}.cls-44{font-size:28.43px;letter-spacing:0.04em;}.cls-45{fill:#0a3237;}.cls-46{fill:#e6e7e8;}.cls-47{fill:#58595b;}</style><linearGradient id="linear-gradient" x1="142.08" y1="349.68" x2="197.4" y2="349.68" gradientTransform="matrix(1, 0, 0, -1, 0, 623.93)" gradientUnits="userSpaceOnUse"><stop offset="0" stop-color="#4cabad"/><stop offset="1" stop-color="#f1634b"/></linearGradient><linearGradient id="linear-gradient-2" x1="188.56" y1="251.17" x2="39.79" y2="337.07" xlink:href="#linear-gradient"/><linearGradient id="linear-gradient-3" x1="30.96" y1="377.34" x2="142.09" y2="377.34" xlink:href="#linear-gradient"/><linearGradient id="linear-gradient-4" x1="30.96" y1="405.25" x2="197.4" y2="405.25" xlink:href="#linear-gradient"/><linearGradient id="linear-gradient-5" x1="86.27" y1="322.03" x2="197.4" y2="322.03" xlink:href="#linear-gradient"/><linearGradient id="linear-gradient-6" x1="30.96" y1="349.68" x2="86.27" y2="349.68" xlink:href="#linear-gradient"/><clipPath id="clip-path"><rect class="cls-1" x="815.55" y="229.34" width="199" height="199" rx="37"/></clipPath></defs><polygon class="cls-2" points="55.27 138.21 55.27 138.21 19.84 102.78 55.27 138.21"/><path class="cls-3" d="M19.84,31.61v71.17l35.43,35.43h71.17V67L91,31.61H19.84m78.84,91.85-14.17-14.2V95h-37v28.48L33.3,109.26V80.81H84.51L98.69,95Z"/><polygon class="cls-4" points="84.5 102.86 84.5 109.26 98.68 123.44 98.68 94.98 84.5 94.98 84.5 102.86"/><polygon class="cls-5" points="33.3 80.81 47.48 94.98 59 94.98 84.5 94.98 98.68 94.98 84.5 80.81 33.3 80.81"/><polygon class="cls-4" points="33.3 94.98 33.3 102.86 33.3 109.26 47.48 123.44 47.48 94.98 33.3 80.81 33.3 94.98"/><polygon class="cls-2" points="226.98 137.59 226.98 137.59 191.55 102.16 226.98 137.59"/><path class="cls-3" d="M191.51,31v71.17l35.43,35.43h71.17V66.46L262.72,31H191.51m78.84,91.82-14.14-14.17V94.36h-37v28.45L205,108.64V80.18h51.19l14.18,14.18Z"/><polygon class="cls-4" points="256.21 102.24 256.21 108.64 270.39 122.81 270.39 94.36 256.21 94.36 256.21 102.24"/><polygon class="cls-5" points="205.02 80.18 219.19 94.36 230.71 94.36 256.21 94.36 270.39 94.36 256.21 80.18 205.02 80.18"/><polygon class="cls-4" points="205.02 94.36 205.02 102.24 205.02 108.64 219.19 122.81 219.19 94.36 205.02 80.18 205.02 94.36"/><polygon class="cls-2" points="393 137.59 393 137.59 357.57 102.16 393 137.59"/><path class="cls-3" d="M357.57,31v71.17L393,137.59h71.17V66.46L428.74,31H357.57m78.84,91.82-14.18-14.17V94.36h-37v28.45L371,108.64V80.18h51.2l14.18,14.18Z"/><polygon class="cls-4" points="422.23 102.24 422.23 108.64 436.41 122.81 436.41 94.36 422.23 94.36 422.23 102.24"/><polygon class="cls-5" points="371.03 80.18 385.21 94.36 396.73 94.36 422.23 94.36 436.41 94.36 422.23 80.18 371.03 80.18"/><polygon class="cls-4" points="371.03 94.36 371.03 102.24 371.03 108.64 385.21 122.81 385.21 94.36 371.03 80.18 371.03 94.36"/><path class="cls-6" d="M20,122.08V106.34l3,3c3.14,3.14,5,8.71,5,12.91s-1.9,6-5,2.83Zm7.52-.36c0-3.94-1.64-8.81-4.51-11.67l-2.51-2.52v14.33L23,124.37c2.86,2.87,4.48,1.34,4.48-2.65Z"/><path class="cls-6" d="M30.4,132.46V116.71l6.19,6.18v.71l-5.71-5.7v6.56l5.6,5.6v.7l-5.6-5.59v7l5.71,5.7v.71Z"/><path class="cls-6" d="M38.34,138.16l.39-.15a15,15,0,0,0,3.14,5.45c2.34,2.34,2.93.85,2.93-.64,0-5.19-6.15-8.76-6.15-14.14,0-2.54,1.51-2.51,3.18-.84a14.45,14.45,0,0,1,3.28,5.49l-.38.17a12.54,12.54,0,0,0-2.9-5c-1.48-1.47-2.64-1.27-2.64.66,0,4.49,6.14,8.27,6.14,14.14,0,1.77-.72,3.55-3.46.82A15.76,15.76,0,0,1,38.34,138.16Z"/><path class="cls-6" d="M53.81,155.82,49.3,143.58l-1.22.84v5.69l-.48-.49V133.88l.48.48v9.1l5.27-3.83.65.65-4.4,3.18,4.91,13Z"/><path class="cls-7" d="M55.69,154.25l1.82-2.55a6.84,6.84,0,0,0,5,2.13c1.84,0,2.73-.85,2.73-1.75,0-2.78-9.06-.87-9.06-6.8,0-2.62,2.27-4.79,6-4.79a8.82,8.82,0,0,1,6.14,2.2l-1.87,2.45a6.81,6.81,0,0,0-4.6-1.68c-1.44,0-2.25.64-2.25,1.58,0,2.5,9,.83,9,6.7,0,2.88-2,5-6.3,5A8.86,8.86,0,0,1,55.69,154.25Z"/><path class="cls-7" d="M70.91,156.46V140.73h7.36a5.08,5.08,0,0,1,.45,10.15H74.27v5.58Zm9.23-10.67a2.12,2.12,0,0,0-2.09-2.13H74.26v4.25h3.56A2.13,2.13,0,0,0,80.13,146c0-.06,0-.12,0-.19Z"/><path class="cls-7" d="M94.75,156.46l-1-2.67H87l-1,2.67H82.22l6.08-15.74h4.21l6.06,15.74ZM90.4,144.07,88,150.84h4.91Z"/><path class="cls-7" d="M98.51,148.61c0-4.84,3.66-8.14,8.38-8.14a7.23,7.23,0,0,1,6.58,3.85l-2.88,1.41a4.31,4.31,0,0,0-3.7-2.29,5.18,5.18,0,0,0,0,10.34,4.23,4.23,0,0,0,3.7-2.29l2.88,1.39a7.22,7.22,0,0,1-6.58,3.87C102.14,156.75,98.51,153.46,98.51,148.61Z"/><path class="cls-7" d="M115.45,156.46V140.73h11.14v3H118.8v3.33h7.62V150H118.8v3.56h7.79v2.89Z"/><path class="cls-6" d="M162.8,166.09V145.54h6.11a9.93,9.93,0,0,1,10.23,9.62v.67c0,5.55-3.86,10.26-10.23,10.26Zm15.26-10.26c0-5.15-3.33-9.37-9.15-9.37h-5.12v18.71h5.12c5.82,0,9.15-4.13,9.15-9.34Z"/><path class="cls-6" d="M183.88,166.09V145.54h12.63v.92H184.87v8.6h11.37V156H184.87v9.19h11.64v.92Z"/><path class="cls-6" d="M200,163.19l.8-.71a8.12,8.12,0,0,0,6.38,3.06c4.75,0,6-2.72,6-4.66,0-6.78-12.48-3.42-12.48-10.44,0-3.33,3.05-5.24,6.44-5.24a8.17,8.17,0,0,1,6.65,2.89l-.77.71a7.05,7.05,0,0,0-5.88-2.68c-3,0-5.36,1.79-5.36,4.32,0,5.85,12.48,2.77,12.48,10.44,0,2.31-1.48,5.58-7,5.58A9,9,0,0,1,200,163.19Z"/><path class="cls-6" d="M231.4,166.09,222.25,156l-2.47,2.68v7.43h-1V145.54h1V157.4l10.73-11.86h1.32l-8.93,9.83,9.86,10.72Z"/><path class="cls-7" d="M234.33,163.19l2.37-3.32a9,9,0,0,0,6.53,2.77c2.41,0,3.58-1.11,3.58-2.28,0-3.64-11.83-1.14-11.83-8.88,0-3.42,3-6.25,7.79-6.25a11.46,11.46,0,0,1,8,2.86l-2.43,3.21a8.9,8.9,0,0,0-6-2.25c-1.88,0-2.93.83-2.93,2.06,0,3.27,11.81,1.08,11.81,8.76,0,3.75-2.68,6.59-8.23,6.59A11.65,11.65,0,0,1,234.33,163.19Z"/><path class="cls-7" d="M254.21,166.09V145.54h9.61c4.47,0,6.9,3,6.9,6.62s-2.46,6.63-6.9,6.63h-5.24v7.3Zm12-13.93a2.76,2.76,0,0,0-2.72-2.78h-4.93v5.54h4.65a2.75,2.75,0,0,0,3-2.46,3,3,0,0,0,0-.31Z"/><path class="cls-7" d="M285.33,166.09l-1.26-3.48h-8.82L274,166.09h-5l8-20.55h5.48l7.92,20.55Zm-5.67-16.18-3.15,8.85h6.4Z"/><path class="cls-7" d="M290.2,155.83c0-6.32,4.78-10.63,10.94-10.63a9.43,9.43,0,0,1,8.6,5L306,152.05a5.63,5.63,0,0,0-4.84-3,6.76,6.76,0,0,0,0,13.5,5.52,5.52,0,0,0,4.84-3l3.76,1.82a9.46,9.46,0,0,1-8.6,5C295,166.46,290.2,162.15,290.2,155.83Z"/><path class="cls-7" d="M312.36,166.09V145.54H326.9v3.85H316.73v4.34h10v3.86h-10v4.65H326.9v3.85Z"/><path class="cls-6" d="M393.51,160V139.46h6.11a9.93,9.93,0,0,1,10.23,9.62v.67c0,5.55-3.86,10.26-10.23,10.26Zm15.26-10.26c0-5.15-3.33-9.37-9.15-9.37H394.5v18.71h5.12c5.77,0,9.1-4.13,9.1-9.34Z"/><path class="cls-6" d="M414.51,160V139.46h12.58v1H415.51v8.6h11.37V150H415.51v9.19H427.1v.92Z"/><path class="cls-6" d="M430.66,157.14l.8-.71a8.12,8.12,0,0,0,6.38,3.06c4.75,0,6-2.72,6-4.66,0-6.78-12.48-3.42-12.48-10.44,0-3.33,3.05-5.24,6.44-5.24A8.16,8.16,0,0,1,444.4,142l-.77.71a7.05,7.05,0,0,0-5.88-2.68c-3,0-5.36,1.79-5.36,4.32,0,5.85,12.48,2.77,12.48,10.44,0,2.31-1.48,5.58-7,5.58A9,9,0,0,1,430.66,157.14Z"/><path class="cls-6" d="M462.06,160l-9.15-10.11-2.47,2.68V160h-1V139.46h1v11.86l10.7-11.86h1.37l-9,9.86L463.37,160Z"/><path class="cls-7" d="M484.51,160l-3.37-2.4A9.13,9.13,0,0,0,484,151c0-2.44-1.12-3.62-2.31-3.62-3.68,0-1.15,12-9,12-3.47,0-6.34-3-6.34-7.9a11.53,11.53,0,0,1,2.91-8.11l3.24,2.47a8.91,8.91,0,0,0-2.28,6c0,1.9.84,3,2.09,3,3.31,0,1.09-11.94,8.86-11.94,3.81,0,6.68,2.71,6.68,8.32A11.87,11.87,0,0,1,484.51,160Z"/><path class="cls-7" d="M487.4,139.88H466.6v-9.73c0-4.52,3-7,6.7-7s6.71,2.5,6.71,7v5.31h7.39Zm-14.1-12.2a2.8,2.8,0,0,0-2.82,2.77,2.64,2.64,0,0,0,0,.29v4.72h5.61v-4.71a2.81,2.81,0,0,0-2.54-3Z"/><path class="cls-7" d="M487.4,108.37l-3.52,1.28v8.93l3.52,1.3v5.06l-20.8-8v-5.6l20.8-8ZM471,114.11l9,3.25v-6.49Z"/><path class="cls-7" d="M477,103.46c-6.39,0-10.76-4.84-10.76-11.08a9.51,9.51,0,0,1,5.09-8.7l1.87,3.78a5.66,5.66,0,0,0-3,4.9,6.84,6.84,0,0,0,13.67,0,5.61,5.61,0,0,0-3-4.9l1.84-3.8a9.62,9.62,0,0,1,5.12,8.7C487.78,98.61,483.41,103.46,477,103.46Z"/><path class="cls-7" d="M487.4,81H466.6V66.29h3.91v10.3h4.39V66.51h3.9V76.59h4.71V66.29h3.9Z"/><polygon class="cls-8" points="945.07 179.46 896.53 130.93 896.53 34.46 993 34.46 1041.53 83 1041.53 179.46 945.07 179.46"/><path class="cls-9" d="M992,37l23.55,23.5L1039,84v93H946.1l-23.53-23.5L899,129.92V37H992M994,32H894V132l25,25,25,25h100V82l-25-25Z"/><path class="cls-10" d="M987,92.85v42.79L1008.35,157V114.17Z"/><path class="cls-10" d="M910,92.85v42.79L931.35,157V114.17Z"/><path class="cls-10" d="M987,92.85H910l21.32,21.32h77Z"/><polygon class="cls-8" points="570.55 179.96 522.01 131.42 522.01 34.96 618.47 34.96 667.01 83.5 667.01 179.96 570.55 179.96"/><path class="cls-9" d="M617.44,37.46,641,61l23.54,23.53v92.93H571.58l-23.53-23.54-23.54-23.53V37.46h92.93m2.07-5h-100v100l25,25,25,25h100v-100l-25-25Z"/><polygon class="cls-11" points="704.01 179.96 704.01 83.5 752.55 34.96 849.01 34.96 849.01 131.42 800.47 179.96 704.01 179.96"/><path class="cls-10" d="M846.51,37.46v92.93L823,153.92l-23.53,23.54H706.51V84.53L730.05,61l23.53-23.54h92.93m5-5h-100l-25,25-25,25v100h100l25-25,25-25Z"/><polyline class="cls-12" points="197.4 246.33 142.08 191.02 142.08 246.33 142.08 301.65 142.08 302.15 197.4 357.46"/><polyline class="cls-13" points="197.4 357.46 142.08 302.15 141.59 302.15 86.27 302.15 30.96 302.15 86.27 357.46 197.4 357.46"/><path class="cls-14" d="M31,191V302.15H141.59l.5-.5V191Zm55.55,55.56-.25.25v-.5h.5Z"/><polyline class="cls-15" points="197.4 246.33 142.08 191.02 30.96 191.02 86.27 246.33 86.77 246.33 142.08 246.33 197.4 246.33"/><polygon class="cls-16" points="131.92 267.83 131.92 289.96 131.92 302.26 131.92 312.26 154.05 334.39 154.05 289.96 131.92 267.83"/><polygon class="cls-16" points="51.98 267.83 51.98 289.96 51.98 302.26 51.98 312.26 74.11 334.39 74.11 289.96 51.98 267.83"/><polygon class="cls-16" points="131.92 267.83 51.98 267.83 74.11 289.96 92.1 289.96 131.92 289.96 154.05 289.96 131.92 267.83"/><polyline class="cls-17" points="197.4 246.33 142.08 246.33 86.77 246.33 86.52 246.58 86.27 246.83 86.27 302.15 86.27 357.46 197.4 357.46"/><polygon class="cls-18" points="30.96 191.02 30.96 302.15 86.27 357.46 86.27 302.15 86.27 246.83 86.27 246.33 30.96 191.02"/><polyline class="cls-19" points="559.79 310.82 430.48 181.52 430.48 290.13 430.48 290.61 559.79 419.92"/><polyline class="cls-16" points="559.79 419.92 430.48 290.61 429.99 290.61 396.38 365.61 450.69 419.92 559.79 419.92"/><path class="cls-19" d="M321.38,181.52V290.61l183.61,75-74.48-75.48V181.52ZM450.93,311.07l-.24.24v-.49h.49Z"/><polyline class="cls-20" points="559.79 310.82 430.48 181.52 321.38 181.52 450.69 310.82 451.18 310.82 559.79 310.82"/><polyline class="cls-21" points="559.79 310.82 451.18 310.82 450.93 311.07 450.69 311.31 450.69 419.92 559.79 419.92"/><polygon class="cls-19" points="321.38 181.52 321.38 290.61 450.69 419.92 450.69 311.31 450.69 310.82 321.38 181.52"/><polygon class="cls-22" points="291.56 277.31 291.56 299.04 291.56 311.11 291.56 320.93 313.29 342.66 313.29 299.04 291.56 277.31"/><polygon class="cls-22" points="213.08 277.31 213.08 299.04 213.08 311.11 213.08 320.93 234.81 342.66 234.81 299.04 213.08 277.31"/><polygon class="cls-22" points="291.56 277.31 213.08 277.31 234.81 299.04 252.46 299.04 291.56 299.04 313.29 299.04 291.56 277.31"/><rect class="cls-8" x="1101.91" y="32.56" width="199" height="199" rx="37"/><rect class="cls-23" x="815.55" y="229.34" width="199" height="199" rx="37"/><polygon class="cls-23" points="1275.66 104.53 1253.16 82.03 1228.16 57.03 1131.7 57.03 1179.2 104.53 1275.66 104.53"/><path class="cls-23" d="M1165.51,139.24V182l-21.32-21.31v-42.8h32v-9.35l-48-48V157l25,25,23,23V139.24Z"/><path class="cls-23" d="M1181.16,117.92h40l21.35,21.32V182l-21.32-21.31V139.24h-40V207h97v-97.5h-97Z"/><path class="cls-10" d="M1221.16,160.72,1242.51,182V139.24h-21.32Z"/><path class="cls-10" d="M1144.16,160.72,1165.51,182V139.24l-21.32-21.32Z"/><path class="cls-10" d="M1165.51,139.24h10.68V117.92h-32Z"/><path class="cls-10" d="M1221.16,139.24V117.92h-40v21.32Z"/><path class="cls-10" d="M1242.51,139.24l-21.32-21.32v21.32Z"/><polygon class="cls-10" points="1179.2 104.53 1131.7 57.03 1128.16 57.03 1128.16 60.57 1176.16 108.57 1176.16 117.92 1181.16 117.92 1181.16 109.53 1278.16 109.53 1278.16 107.03 1275.66 104.53 1179.2 104.53"/><path class="cls-10" d="M1176.16,139.24V205l2,2h3V139.24Z"/><path class="cls-10" d="M1181.16,139.24V117.92h-5v21.32Z"/><polygon class="cls-23" points="773.33 292.64 744.71 264.02 712.91 232.22 590.22 232.22 650.63 292.64 773.33 292.64"/><path class="cls-23" d="M633.19,336.78v54.43L606.07,364.1V309.67h40.7v-11.9l-61-61V359.46l31.74,31.75,29.26,29.25V336.78Z"/><path class="cls-23" d="M653.13,309.67H704l27.11,27.11v54.43L704,364.1V336.78H653.13V423H776.51V299H653.13Z"/><path class="cls-10" d="M704,364.1l27.11,27.11V336.78H704Z"/><path class="cls-10" d="M606.07,364.1l27.12,27.11V336.78l-27.12-27.11Z"/><path class="cls-10" d="M633.19,336.78h13.58V309.67h-40.7Z"/><path class="cls-10" d="M704,336.78V309.67H653.13v27.11Z"/><path class="cls-10" d="M731.12,336.78,704,309.67v27.11Z"/><polygon class="cls-10" points="650.63 292.64 590.22 232.22 585.72 232.22 585.72 236.72 646.77 297.77 646.77 309.67 653.13 309.67 653.13 299 776.51 299 776.51 295.82 773.33 292.64 650.63 292.64"/><path class="cls-10" d="M646.77,336.78v83.68l2.55,2.54h3.81V336.78Z"/><path class="cls-10" d="M653.13,336.78V309.67h-6.36v27.11Z"/><path class="cls-24" d="M992,351V407L964.17,379.1V351Z"/><path class="cls-10" d="M964.17,323.18,992,351H964.17Z"/><path class="cls-10" d="M964.17,323.18V351H891.41l-27.9-27.86Z"/><path class="cls-24" d="M891.41,351V407l-27.9-27.86V323.18Z"/><g class="cls-25"><polygon class="cls-26" points="847.68 286.84 845.54 285.95 744.22 183.62 744.25 179.37 750.64 173.04 754.88 173.06 852.68 271.84 1031.55 271.84 1034.55 274.84 1034.55 283.84 1031.55 286.84 847.68 286.84"/><polygon class="cls-26" points="1031.55 283.84 847.68 283.84 746.36 181.5 752.75 175.17 851.43 274.84 1031.55 274.84 1031.55 283.84"/><polygon class="cls-26" points="845.55 483.84 842.55 480.84 842.55 278.84 845.55 275.84 854.55 275.84 857.55 278.84 857.55 480.84 854.55 483.84 845.55 483.84"/><rect class="cls-26" x="845.55" y="278.84" width="9" height="202"/></g><polyline class="cls-27" points="633.87 495.87 587.78 449.78 587.78 495.87 587.78 541.96 587.78 542.37 633.87 588.46"/><polyline class="cls-28" points="633.87 588.46 587.78 542.37 587.36 542.37 541.27 542.37 495.18 542.37 541.27 588.46 633.87 588.46"/><path class="cls-27" d="M495.18,449.78v92.59h92.18l.42-.41V449.78Zm46.33,46.29-.21.21v-.41h.42Z"/><polygon class="cls-29" points="587.78 449.78 495.18 449.78 541.27 495.87 541.69 495.87 587.78 495.87 633.87 495.87 587.78 449.78"/><polygon class="cls-29" points="633.87 495.87 587.78 495.87 541.69 495.87 541.48 496.07 541.27 496.28 541.27 542.37 541.27 588.46 633.87 588.46 633.87 495.87"/><polygon class="cls-29" points="495.18 449.78 495.18 542.37 541.27 588.46 541.27 542.37 541.27 496.28 541.27 495.87 495.18 449.78"/><path class="cls-16" d="M630.87,498.87v86.59h-86.6V498.87h86.6m3-3H541.69l-.21.2-.21.21v92.18h92.6V495.87Z"/><polyline class="cls-30" points="541.48 496.07 495.81 451.79 495.81 541.9 541.27 587.22"/><polygon class="cls-16" points="1280.3 210.89 1131.12 210.89 1128.68 208.49 1278.18 208.78 1280.3 210.89"/><polygon class="cls-16" points="588.06 450.06 633.87 495.87 633.87 497.97 587.39 450.9 588.06 450.06"/><polygon class="cls-16" points="579.31 513.78 579.31 532.22 579.31 542.47 579.31 550.8 597.75 569.24 597.75 532.22 579.31 513.78"/><polygon class="cls-16" points="512.7 513.78 512.7 532.22 512.7 542.47 512.7 550.8 531.14 569.24 531.14 532.22 512.7 513.78"/><polygon class="cls-16" points="579.31 513.78 512.7 513.78 531.14 532.22 546.13 532.22 579.31 532.22 597.75 532.22 579.31 513.78"/><polyline class="cls-31" points="223.18 456.07 164.75 397.64 164.75 456.07 164.75 514.5 164.75 515.03 223.18 573.46"/><polyline class="cls-32" points="223.18 573.46 164.75 515.03 164.23 515.03 105.8 515.03 47.37 515.03 105.8 573.46 223.18 573.46"/><path class="cls-31" d="M47.37,397.64V515H164.23l.52-.53V397.64Zm58.69,58.7-.26.26v-.53h.52Z"/><polygon class="cls-33" points="106.01 455.57 48.57 398.14 164.55 398.14 221.98 455.57 106.01 455.57"/><path class="cls-33" d="M164.34,398.64l56.43,56.43H106.21L49.78,398.64H164.34m.41-1H47.37l58.43,58.43H223.18l-58.43-58.43Z"/><polygon class="cls-33" points="223.18 456.07 164.75 456.07 106.32 456.07 106.06 456.34 105.8 456.6 105.8 515.03 105.8 573.46 223.18 573.46 223.18 456.07"/><polygon class="cls-33" points="47.37 397.64 47.37 515.03 105.8 573.46 105.8 515.03 105.8 456.6 105.8 456.07 47.37 397.64"/><path class="cls-22" d="M220.18,459.07V570.46H108.8V459.07H220.18m3-3H106.32l-.26.27-.26.26V573.46H223.18Z"/><polyline class="cls-34" points="106.06 456.34 48.16 400.2 48.16 514.44 105.8 571.89"/><polygon class="cls-22" points="166.42 399.31 48.89 399.31 46.97 397.42 164.75 397.64 166.42 399.31"/><polygon class="cls-22" points="165.12 398.01 223.18 456.07 223.18 458.74 164.26 399.07 165.12 398.01"/><polygon class="cls-22" points="154.02 478.78 154.02 502.16 154.02 515.15 154.02 525.71 177.39 549.09 177.39 502.16 154.02 478.78"/><polygon class="cls-22" points="69.57 478.78 69.57 502.16 69.57 515.15 69.57 525.71 92.95 549.09 92.95 502.16 69.57 478.78"/><polygon class="cls-22" points="154.02 478.78 69.57 478.78 92.95 502.16 111.95 502.16 154.02 502.16 177.39 502.16 154.02 478.78"/><polyline class="cls-35" points="164.36 399.53 164.36 515.34 221.61 571.89"/><polygon class="cls-22" points="167.85 515.1 50.32 515.1 48.4 513.22 166.18 513.44 167.85 515.1"/><polyline class="cls-19" points="1222.48 308.74 1165.66 251.92 1165.66 308.74 1165.66 365.56 1165.66 366.07 1222.48 422.89"/><polyline class="cls-36" points="1222.48 422.89 1165.66 366.07 1165.15 366.07 1108.33 366.07 1051.51 366.07 1108.33 422.89 1222.48 422.89"/><path class="cls-37" d="M1051.51,251.92V366.07h113.64l.51-.51V251.92ZM1108.59,309l-.26.25v-.51h.51Z"/><polyline class="cls-36" points="1222.48 308.74 1165.66 251.92 1051.51 251.92 1108.33 308.74 1108.84 308.74 1165.66 308.74 1222.48 308.74"/><polygon class="cls-16" points="1155.22 330.82 1155.22 353.56 1155.22 366.19 1155.22 376.46 1177.95 399.2 1177.95 353.56 1155.22 330.82"/><polygon class="cls-16" points="1073.1 330.82 1073.1 353.56 1073.1 366.19 1073.1 376.46 1095.84 399.2 1095.84 353.56 1073.1 330.82"/><polygon class="cls-16" points="1155.22 330.82 1073.1 330.82 1095.84 353.56 1114.31 353.56 1155.22 353.56 1177.95 353.56 1155.22 330.82"/><polyline class="cls-27" points="1222.48 308.74 1165.66 308.74 1108.84 308.74 1108.59 309 1108.33 309.25 1108.33 366.07 1108.33 422.89 1222.48 422.89"/><polygon class="cls-19" points="1051.51 251.92 1051.51 366.07 1108.33 422.89 1108.33 366.07 1108.33 309.25 1108.33 308.74 1051.51 251.92"/><polyline class="cls-36" points="799.92 497.34 749.78 447.19 749.78 497.34 749.78 547.48 749.78 547.93 799.92 598.08"/><polyline class="cls-38" points="799.92 598.08 749.78 547.93 749.33 547.93 699.18 547.93 649.04 547.93 699.18 598.08 799.92 598.08"/><path class="cls-19" d="M649,447.19V547.93H749.33l.45-.45V447.19Zm50.37,50.37-.23.23v-.46h.46Z"/><polyline class="cls-37" points="799.92 497.34 749.78 447.19 649.04 447.19 699.18 497.34 699.64 497.34 749.78 497.34 799.92 497.34"/><polygon class="cls-24" points="740.56 516.82 740.56 536.88 740.56 548.04 740.56 557.1 760.63 577.16 760.63 536.88 740.56 516.82"/><polygon class="cls-24" points="668.09 516.82 668.09 536.88 668.09 548.04 668.09 557.1 688.16 577.16 688.16 536.88 668.09 516.82"/><polygon class="cls-24" points="740.56 516.82 668.09 516.82 688.16 536.88 704.47 536.88 740.56 536.88 760.63 536.88 740.56 516.82"/><polyline class="cls-19" points="799.92 497.34 749.78 497.34 699.64 497.34 699.41 497.56 699.18 497.79 699.18 547.93 699.18 598.08 799.92 598.08"/><polygon class="cls-27" points="649.04 447.19 649.04 547.93 699.18 598.08 699.18 547.93 699.18 497.79 699.18 497.34 649.04 447.19"/><polyline class="cls-39" points="407.16 442.07 353.62 388.52 353.62 442.07 353.62 495.61 353.62 496.09 407.16 549.64"/><polyline class="cls-10" points="407.16 549.64 353.62 496.09 353.13 496.09 299.59 496.09 246.04 496.09 299.59 549.64 407.16 549.64"/><path class="cls-39" d="M246,388.52V496.1H353.13l.49-.49V388.52Zm53.79,53.79-.24.24v-.48h.48Z"/><polyline class="cls-39" points="407.16 442.07 353.62 388.52 246.04 388.52 299.59 442.07 300.07 442.07 353.62 442.07 407.16 442.07"/><polygon class="cls-26" points="343.78 462.88 343.78 484.3 343.78 496.21 343.78 505.89 365.2 527.31 365.2 484.3 343.78 462.88"/><polygon class="cls-26" points="266.39 462.88 266.39 484.3 266.39 496.21 266.39 505.89 287.81 527.31 287.81 484.3 266.39 462.88"/><polygon class="cls-26" points="343.78 462.88 266.39 462.88 287.81 484.3 305.23 484.3 343.78 484.3 365.2 484.3 343.78 462.88"/><polyline class="cls-40" points="407.16 442.07 353.62 442.07 300.07 442.07 299.83 442.31 299.59 442.55 299.59 496.09 299.59 549.64 407.16 549.64"/><polygon class="cls-39" points="246.04 388.52 246.04 496.09 299.59 549.64 299.59 496.09 299.59 442.55 299.59 442.07 246.04 388.52"/><path class="cls-10" d="M441.09,582.37l-5-3.6a13.71,13.71,0,0,0,4.2-9.91c0-3.64-1.68-5.42-3.45-5.42-5.52,0-1.73,17.95-13.47,17.95-5.19,0-9.49-4.49-9.49-11.83a17.31,17.31,0,0,1,4.35-12.1l4.86,3.69a13.38,13.38,0,0,0-3.41,9.07c0,2.85,1.26,4.44,3.13,4.44,5,0,1.64-17.9,13.28-17.9,5.7,0,10,4.07,10,12.48C446,575.17,444,579.46,441.09,582.37Z"/><path class="cls-10" d="M445.51,552.22H414.3V537.64c0-6.78,4.58-10.48,10-10.48s10.05,3.74,10.05,10.48v7.94h11.16Zm-21.13-18.28c-2.62,0-4.21,2-4.21,4.58v7.06h8.42v-7.06c0-2.61-1.67-4.58-4.24-4.58Z"/><path class="cls-10" d="M445.51,505l-5.28,1.91v13.37l5.28,2v7.58l-31.18-12.06v-8.35l31.18-12ZM421,513.61l13.38,4.85v-9.72Z"/><path class="cls-10" d="M429.91,497.62c-9.58,0-16.12-7.25-16.12-16.6a14.25,14.25,0,0,1,7.62-13l2.8,5.7a8.45,8.45,0,0,0-4.53,7.34c0,5.66,4.34,9.77,10.23,9.77s10.24-4.11,10.24-9.77a8.39,8.39,0,0,0-4.53-7.34l2.75-5.7A14.37,14.37,0,0,1,446,481C446,490.37,439.51,497.62,429.91,497.62Z"/><path class="cls-10" d="M445.51,464H414.3V441.94h5.84v15.43h6.59v-15.1h5.85v15.1h7.06V441.94h5.87Z"/><text class="cls-41" transform="translate(296.4 585.44)">DESK</text><path class="cls-42" d="M1274.51,379.2c-7.17,0-12.07-5.42-12.07-12.25a10.78,10.78,0,0,1,5.7-9.94l2.1,4.27a6.39,6.39,0,0,0-3.39,5.67c0,4.06,3.25,7.14,7.66,7.14s7.67-3.08,7.67-7.14a6.33,6.33,0,0,0-3.4-5.67l2.07-4.27a10.86,10.86,0,0,1,5.74,9.94C1286.56,373.78,1281.66,379.2,1274.51,379.2Z"/><path class="cls-42" d="M1262.79,354v-5h19v-9.87h4.38V354Z"/><path class="cls-42" d="M1262.79,335.73V319.21h4.27v11.55h5.08v-11.3h4.27v11.3h5.42V319.21h4.31v16.52Z"/><path class="cls-42" d="M1282.11,300.46v10.43l4,1.48v5.46l-23.35-9v-6.24l23.35-9V299Zm-4.3,9.1v-7.73l-10.71,3.85Z"/><path class="cls-42" d="M1270.51,286.46h15.68v5h-23.35v-5.11l15.07-10.89h-15.12v-5h23.35v4.8Z"/><path class="cls-42" d="M1293.45,269.93h5v13.86c0,3.26,1.78,5.5,5.42,5.5s5.36-2.24,5.36-5.5V269.93h5v14c0,5.81-3.33,9.77-10.4,9.77s-10.46-4-10.46-9.73Z"/><path class="cls-42" d="M1318.92,269.93h10.93c5.07,0,7.84,3.43,7.84,7.53s-2.8,7.45-7.84,7.45h-5.95v8.37h-5Zm10.26,4.27h-5.28v6.44h5.28a3.23,3.23,0,1,0,.5-6.44Z"/><polyline class="cls-19" points="1468.63 337.6 1433.29 302.26 1433.29 337.6 1433.29 372.94 1433.29 373.26 1468.63 408.6"/><polyline class="cls-16" points="1468.63 408.6 1433.29 373.26 1432.97 373.26 1330.43 373.32 1294.97 373.26 1330.31 408.6 1468.63 408.6"/><path class="cls-19" d="M1295,302.26v71h138l.32-.32V302.26Zm35.5,35.5-.16.16v-.32h.32Z"/><polyline class="cls-20" points="1468.63 337.6 1433.29 302.26 1294.97 302.26 1330.31 337.6 1330.63 337.6 1433.29 337.6 1468.63 337.6"/><polygon class="cls-22" points="1426.8 351.34 1426.8 365.48 1426.8 373.34 1426.8 379.72 1440.94 393.86 1440.94 365.48 1426.8 351.34"/><polygon class="cls-22" points="1375.72 351.34 1375.72 365.48 1375.72 373.34 1375.72 379.72 1389.86 393.86 1389.86 365.48 1375.72 351.34"/><polygon class="cls-22" points="1426.8 351.34 1375.72 351.34 1389.86 365.48 1401.35 365.48 1426.8 365.48 1440.94 365.48 1426.8 351.34"/><polyline class="cls-21" points="1468.63 337.6 1433.29 337.6 1330.63 337.6 1330.47 337.76 1330.31 337.92 1330.43 373.32 1330.31 408.6 1468.63 408.6"/><polygon class="cls-19" points="1294.97 302.26 1294.97 373.26 1330.31 408.6 1330.31 373.26 1330.31 337.92 1330.31 337.6 1294.97 302.26"/><path class="cls-43" d="M1491,430.21l-3.33-2.38a9,9,0,0,0,2.78-6.54c0-2.41-1.11-3.58-2.29-3.58-3.64,0-1.14,11.85-8.88,11.85-3.43,0-6.26-3-6.26-7.81a11.38,11.38,0,0,1,2.87-8l3.2,2.44a8.8,8.8,0,0,0-2.25,6c0,1.89.83,2.93,2.07,2.93,3.27,0,1.08-11.81,8.76-11.81,3.77,0,6.6,2.68,6.6,8.24A11.73,11.73,0,0,1,1491,430.21Z"/><path class="cls-43" d="M1493.92,410.31h-20.58v-9.63c0-4.47,3-6.91,6.64-6.91s6.63,2.47,6.63,6.91v5.24h7.31ZM1480,398.24a2.76,2.76,0,0,0-2.79,2.73,1.22,1.22,0,0,0,0,.27v4.65h5.55v-4.65a2.78,2.78,0,0,0-2.56-3Z"/><path class="cls-43" d="M1493.92,379.14l-3.48,1.27v8.82l3.48,1.3v5l-20.58-8V382l20.58-7.93Zm-16.19,5.68,8.85,3.21v-6.42Z"/><path class="cls-43" d="M1483.65,374.27c-6.33,0-10.64-4.79-10.64-11a9.41,9.41,0,0,1,5-8.6l1.86,3.76a5.54,5.54,0,0,0-3,4.84,6.77,6.77,0,0,0,13.52,0,5.54,5.54,0,0,0-3-4.84l1.82-3.76a9.49,9.49,0,0,1,5.06,8.6C1494.29,369.46,1490,374.27,1483.65,374.27Z"/><path class="cls-43" d="M1493.92,352.08h-20.58V337.52h3.86V347.7h4.31v-10h3.86v10H1490V337.52h3.85Z"/><text class="cls-44" transform="translate(1395.53 432.23)">DESK</text><path class="cls-43" d="M1313,420.66h-1.5V419H1313v-.5a2.75,2.75,0,0,1,2.38-3.07l.45,0a3.24,3.24,0,0,1,1.55.36l-.42,1.42a1.64,1.64,0,0,0-.78-.19c-.76,0-1.24.5-1.24,1.5v.5h1.81v1.7h-1.81v7.23H1313Z"/><path class="cls-43" d="M1317.69,423.46a4.59,4.59,0,1,1,4.58,4.7,4.46,4.46,0,0,1-4.59-4.33C1317.68,423.71,1317.68,423.59,1317.69,423.46Zm7.17,0a2.61,2.61,0,1,0-2.59,3,2.67,2.67,0,0,0,2.6-2.75,2.18,2.18,0,0,0,0-.25Z"/><path class="cls-43" d="M1328.83,419h1.94v1.31a3.84,3.84,0,0,1,2.9-1.51v1.92a3.15,3.15,0,0,0-.61-.06,3.11,3.11,0,0,0-2.29,1.19v6.08h-1.94Z"/><path class="cls-43" d="M1350.93,422.06c0-1-.42-1.6-1.46-1.6a2.73,2.73,0,0,0-2.07,1.18v6.25h-1.89v-5.83c0-1-.42-1.6-1.48-1.6a2.7,2.7,0,0,0-2,1.2v6.23h-1.94V419H1342v1.22a3.83,3.83,0,0,1,2.9-1.44,2.32,2.32,0,0,1,2.44,1.64,3.79,3.79,0,0,1,3-1.64c1.64,0,2.56.88,2.56,2.7v6.45H1351Z"/><path class="cls-43" d="M1354.83,423.46a4.6,4.6,0,1,1,4.59,4.7,4.47,4.47,0,0,1-4.6-4.34C1354.82,423.7,1354.82,423.58,1354.83,423.46Zm7.17,0a2.6,2.6,0,0,0-5.15-.72,2.17,2.17,0,0,0,0,.72c0,1.59.92,3,2.57,3A2.74,2.74,0,0,0,1362,423.46Z"/><path class="cls-43" d="M1366,419h1.94v1.31a3.79,3.79,0,0,1,2.9-1.51v1.92a3.15,3.15,0,0,0-.61-.06,3.11,3.11,0,0,0-2.29,1.19v6.08H1366Z"/><path class="cls-43" d="M1376.36,418.74c2.68,0,4.4,2.05,4.4,4.86v.46h-6.89a2.68,2.68,0,0,0,2.84,2.46,3.76,3.76,0,0,0,2.54-1l.88,1.27a5.2,5.2,0,0,1-3.62,1.3,4.69,4.69,0,0,1-.15-9.37Zm-2.51,4h5a2.4,2.4,0,0,0-2.42-2.36h-.1a2.47,2.47,0,0,0-2.48,2.31Z"/><rect class="cls-45" x="1323.21" y="30.12" width="199" height="199" rx="37"/><polyline class="cls-19" points="1504.41 102.22 1450.11 47.92 1450.11 102.22 1450.11 156.53 1450.11 157.02 1504.41 211.32"/><polyline class="cls-16" points="1504.41 211.32 1450.11 157.02 1449.62 157.02 1395.31 157.02 1341.01 157.02 1395.31 211.32 1504.41 211.32"/><path class="cls-19" d="M1341,47.92V157h108.61l.49-.49V47.92Zm54.55,54.54-.25.24v-.49h.49Z"/><polyline class="cls-20" points="1504.41 102.22 1450.11 47.92 1341.01 47.92 1395.31 102.22 1395.8 102.22 1450.11 102.22 1504.41 102.22"/><polygon class="cls-22" points="1440.13 123.33 1440.13 145.05 1440.13 157.13 1440.13 166.95 1461.86 188.67 1461.86 145.05 1440.13 123.33"/><polygon class="cls-22" points="1361.64 123.33 1361.64 145.05 1361.64 157.13 1361.64 166.95 1383.37 188.67 1383.37 145.05 1361.64 123.33"/><polygon class="cls-22" points="1440.13 123.33 1361.64 123.33 1383.37 145.05 1401.03 145.05 1440.13 145.05 1461.86 145.05 1440.13 123.33"/><polyline class="cls-21" points="1504.41 102.22 1450.11 102.22 1395.8 102.22 1395.56 102.47 1395.31 102.71 1395.31 157.02 1395.31 211.32 1504.41 211.32"/><polygon class="cls-19" points="1341.01 47.92 1341.01 157.02 1395.31 211.32 1395.31 157.02 1395.31 102.71 1395.31 102.22 1341.01 47.92"/><path class="cls-27" d="M1094.15,498.6,1051.51,456v85.69l42.65,42.65"/><path class="cls-28" d="M1094.15,584.29l-42.64-42.65h-85.7l42.7,42.65h85.69"/><path class="cls-27" d="M965.81,456v85.69h85.3l.39-.38V456Zm42.84,42.85-.19.19v-.39h.38Z"/><polygon class="cls-8" points="1008.57 498.34 966.44 456.21 1051.39 456.21 1093.52 498.34 1008.57 498.34"/><path class="cls-8" d="M1051.28,456.46l41.61,41.61h-84.21l-41.61-41.61h84.21m.22-.52H965.81l42.7,42.66h85.69L1051.51,456Z"/><path class="cls-8" d="M1094.15,498.6h-85.31l-.38.39v85.3h85.69Z"/><path class="cls-8" d="M965.81,456v85.69l42.7,42.65V498.6Z"/><path class="cls-10" d="M1092.59,500.17v82.56H1010V500.17h82.57m1.56-1.57h-85.31l-.38.39v85.3h85.69V498.6Z"/><path class="cls-10" d="M1008.51,584a.79.79,0,0,1-.61-.25l-42.39-42.19V455.78l43.73,42.4a.87.87,0,0,1,0,1.22.85.85,0,0,1-1.22,0h0l-40.8-39.56v81l41.83,41.69a.88.88,0,0,1,0,1.22.86.86,0,0,1-.61.25Z"/><polygon class="cls-10" points="1052.71 457.16 966.92 457.16 965.52 455.79 1051.5 455.95 1052.71 457.16"/><polygon class="cls-10" points="1051.76 456.22 1094.15 498.6 1094.15 500.55 1051.14 456.99 1051.76 456.22"/><path class="cls-10" d="M1043.66,515.18v34.28l17.07,17.07V532.25Z"/><path class="cls-10" d="M982,515.18v34.28l17.07,17.07V532.25Z"/><path class="cls-10" d="M1043.66,515.18H982l17.07,17.07h61.65Z"/><polygon class="cls-10" points="1092.4 583.76 1050.35 542.23 1050.35 457.33 1052.07 457.33 1052.07 541.5 1093.61 582.53 1092.4 583.76"/><polygon class="cls-10" points="1053.75 541.7 967.96 541.7 966.56 540.32 1052.54 540.48 1053.75 541.7"/><path class="cls-27" d="M1248.67,499.21,1206,456.56v85.69l42.65,42.65"/><path class="cls-28" d="M1248.67,584.9,1206,542.25h-85.69L1163,584.9h85.69"/><path class="cls-27" d="M1120.33,456.56v85.69h85.31l.38-.39v-85.3Zm42.85,42.84-.2.19v-.38h.39Z"/><polygon class="cls-10" points="1163.09 498.95 1120.96 456.82 1205.91 456.82 1248.05 498.95 1163.09 498.95"/><path class="cls-8" d="M1205.81,457.08l41.61,41.61H1163.2l-41.61-41.61h84.22m.21-.52h-85.69L1163,499.21h85.69L1206,456.56Z"/><path class="cls-8" d="M1248.67,499.21h-85.3l-.39.38V584.9h85.69Z"/><path class="cls-10" d="M1120.33,456.56v85.69L1163,584.9V499.21Z"/><rect class="cls-10" x="1163.77" y="499.99" width="84.13" height="84.13"/><path class="cls-8" d="M1247.11,500.77v82.57h-82.6V500.77h82.56m1.56-1.56h-85.3l-.39.38V584.9h85.69Z"/><path class="cls-8" d="M1163,584.62a.86.86,0,0,1-.61-.25L1120,542.17V456.39l43.74,42.39a.88.88,0,0,1,0,1.22.87.87,0,0,1-1.22,0h0l-40.79-39.54v81l41.82,41.68a.88.88,0,0,1,0,1.22h0A.8.8,0,0,1,1163,584.62Z"/><polygon class="cls-8" points="1207.23 457.77 1121.44 457.77 1120.04 456.39 1206.02 456.56 1207.23 457.77"/><polygon class="cls-8" points="1206.29 456.82 1248.67 499.21 1248.67 501.16 1205.66 457.59 1206.29 456.82"/><path class="cls-8" d="M1198.18,515.79v34.26l17.07,17.06V532.85Z"/><path class="cls-8" d="M1136.51,515.79v34.26l17.07,17.06V532.85Z"/><path class="cls-8" d="M1198.18,515.79h-61.67l17.07,17.06h61.64Z"/><polygon class="cls-8" points="1246.92 584.37 1204.87 542.83 1205.12 456.56 1206.22 457.66 1206.6 542.11 1248.13 583.14 1246.92 584.37"/><polygon class="cls-8" points="1208.28 542.3 1122.49 542.3 1121.09 540.92 1207.07 541.09 1208.28 542.3"/><path class="cls-27" d="M951.39,505.14l-42.65-42.68v85.69l42.65,42.65"/><path class="cls-28" d="M951.39,590.83l-42.65-42.65H823.05l42.65,42.65h85.69"/><path class="cls-27" d="M823.05,462.46v85.69h85.3l.39-.38V462.46Zm42.84,42.84-.19.2v-.39h.38Z"/><polygon class="cls-3" points="865.81 504.88 823.67 462.75 908.63 462.75 950.76 504.88 865.81 504.88"/><path class="cls-8" d="M908.51,463l41.61,41.61h-84.2L824.3,463h84.21m.22-.52H823.05l42.65,42.65h85.69l-42.65-42.68Z"/><path class="cls-8" d="M951.39,505.14H866.08l-.38.39v85.3h85.69Z"/><path class="cls-3" d="M823.05,462.46v85.69L865.7,590.8V505.14Z"/><rect class="cls-3" x="866.48" y="505.92" width="84.13" height="84.13"/><path class="cls-8" d="M949.83,506.71v82.56H867.26V506.71h82.57m1.56-1.57H866.08l-.38.39v85.3h85.69Z"/><path class="cls-8" d="M865.7,590.55a.86.86,0,0,1-.61-.25l-42.33-42.2V462.32l43.75,42.39a.88.88,0,0,1,0,1.22.87.87,0,0,1-1.22,0h0l-40.78-39.54v81l41.83,41.68a.88.88,0,0,1,0,1.23.86.86,0,0,1-.6.25Z"/><polygon class="cls-8" points="909.95 463.7 824.16 463.7 822.76 462.33 908.74 462.49 909.95 463.7"/><polygon class="cls-8" points="909 462.75 951.39 505.14 951.39 507.09 908.38 463.53 909 462.75"/><path class="cls-5" d="M900.9,521.72V556L918,573.05V538.78Z"/><path class="cls-5" d="M839.25,521.72V556l17.07,17.07V538.78Z"/><path class="cls-5" d="M900.9,521.72H839.25l17.07,17.06H918Z"/><polygon class="cls-5" points="949.64 590.3 907.59 548.76 907.84 462.49 908.94 463.6 909.31 548.04 950.85 589.07 949.64 590.3"/><polygon class="cls-8" points="910.99 548.23 825.2 548.23 823.8 546.85 909.78 547.02 910.99 548.23"/><polygon class="cls-2" points="1348.23 595.33 1348.23 595.33 1301.51 548.6 1348.23 595.33"/><path class="cls-3" d="M1301.51,454.74v93.87l46.72,46.72h93.86V501.46l-46.72-46.72h-93.86m104,121.1-18.69-18.69V538.31H1338v37.53l-18.7-18.69V519.62h67.53l18.69,18.69Z"/><polygon class="cls-4" points="1386.79 548.71 1386.79 557.15 1405.48 575.84 1405.48 538.31 1386.79 538.31 1386.79 548.71"/><polygon class="cls-5" points="1319.26 519.62 1337.96 538.31 1353.15 538.31 1386.79 538.31 1405.48 538.31 1386.79 519.62 1319.26 519.62"/><polygon class="cls-4" points="1319.26 538.31 1319.26 548.71 1319.26 557.15 1337.96 575.84 1337.96 538.31 1319.26 519.62 1319.26 538.31"/><path class="cls-46" d="M1344,525.46a4.83,4.83,0,0,1,3.53,1.24,5,5,0,0,1,1.24,3.71v1.51a5,5,0,0,1-1.25,3.71,4.76,4.76,0,0,1-3.55,1.25h-4.19V525.46Zm2.46,9.2a3.92,3.92,0,0,0,.8-2.71v-1.49a4.11,4.11,0,0,0-.8-2.79,3.17,3.17,0,0,0-2.46-.9h-2.71v8.74H1344a3.14,3.14,0,0,0,2.49-.84Z"/><path class="cls-46" d="M1351.19,530.46h5.55v1.34h-5.55v3.79h6.48v1.34h-8V525.46h8v1.34h-6.48Z"/><path class="cls-46" d="M1358.26,533.6h1.45a2,2,0,0,0,.86,1.6,3.83,3.83,0,0,0,2.17.5c2,0,3-.66,3-2a1.66,1.66,0,0,0-.56-1.32,3.53,3.53,0,0,0-1.74-.6l-1.54-.18q-3.33-.42-3.33-3.07a2.85,2.85,0,0,1,1.13-2.39,5,5,0,0,1,3.08-.85,4.93,4.93,0,0,1,3,.82,3.32,3.32,0,0,1,1.25,2.42h-1.52a2,2,0,0,0-.76-1.48,3.52,3.52,0,0,0-2-.49,3.69,3.69,0,0,0-2.06.48,1.58,1.58,0,0,0-.69,1.39,1.5,1.5,0,0,0,.54,1.25,3.24,3.24,0,0,0,1.68.59l1.6.18c2.26.3,3.38,1.35,3.38,3.15a2.92,2.92,0,0,1-1.19,2.48,5.48,5.48,0,0,1-3.31.88,5,5,0,0,1-3.18-.86A3.23,3.23,0,0,1,1358.26,533.6Z"/><path class="cls-46" d="M1370.08,533.76v3.13h-1.51V525.46h1.51v6.39l5.88-6.39h1.89l-4.19,4.48,4.72,6.94h-1.81l-3.91-5.88Z"/><path class="cls-47" d="M1339.8,547.86h2.07a1.73,1.73,0,0,0,.73,1.32,3.27,3.27,0,0,0,1.82.4c1.55,0,2.33-.51,2.33-1.53a1.27,1.27,0,0,0-.46-1,3.3,3.3,0,0,0-1.52-.47l-1.21-.15c-2.32-.29-3.48-1.35-3.48-3.2a3,3,0,0,1,1.16-2.52,5.08,5.08,0,0,1,3.16-.92,4.79,4.79,0,0,1,3,.88,3.45,3.45,0,0,1,1.23,2.53h-2.09a1.59,1.59,0,0,0-.6-1.21,3.69,3.69,0,0,0-3.24,0,1.23,1.23,0,0,0-.55,1.08,1.09,1.09,0,0,0,.48,1,3.22,3.22,0,0,0,1.54.49l1.38.18a4.32,4.32,0,0,1,2.46,1,2.91,2.91,0,0,1,.85,2.19,3.12,3.12,0,0,1-1.23,2.64,5.42,5.42,0,0,1-3.36.92,5,5,0,0,1-3.23-.92A3.57,3.57,0,0,1,1339.8,547.86Z"/><path class="cls-47" d="M1358.29,543.46a3.22,3.22,0,0,1-1.08,2.58,4.66,4.66,0,0,1-3.09.93h-2.69v4.34h-2.16V539.92h4.93a4.57,4.57,0,0,1,3,.92A3.31,3.31,0,0,1,1358.29,543.46Zm-2.65-1.27a2,2,0,0,0-1.36-.42h-2.85v3.3h2.85c1.23,0,1.84-.54,1.84-1.62a1.58,1.58,0,0,0-.48-1.23Z"/><path class="cls-47" d="M1359.28,549.12l-.83,2.22h-2.32l4.69-11.42h1.77l4.68,11.42H1365l-.83-2.22Zm2.41-6.46-1.74,4.66h3.5Z"/><path class="cls-47" d="M1366.32,546.46v-1.78a4.47,4.47,0,0,1,4.89-5,5.11,5.11,0,0,1,3.35,1,3.53,3.53,0,0,1,1.25,2.88v.13h-2.17v-.07a1.93,1.93,0,0,0-.64-1.51,2.75,2.75,0,0,0-1.79-.56,2.53,2.53,0,0,0-2,.8,3.65,3.65,0,0,0-.67,2.43v1.7a3.39,3.39,0,0,0,.68,2.34,2.56,2.56,0,0,0,2,.76A2.67,2.67,0,0,0,1373,549a1.88,1.88,0,0,0,.63-1.48v-.08h2.16v.08a3.66,3.66,0,0,1-1.28,2.92,5,5,0,0,1-3.36,1,4.85,4.85,0,0,1-3.58-1.26A4.93,4.93,0,0,1,1366.32,546.46Z"/><path class="cls-47" d="M1378.37,544.63h5.14v1.89h-5.15v2.94h6v1.89h-8.16V539.92h8.16v1.88h-6Z"/><path class="cls-8" d="M1536.75,10.09V612.93H10.11V10.09H1536.75m10-10H.11V622.93H1546.75V.09Z"/></svg>