<?xml version="1.0" encoding="utf-8"?>
<!-- Generator: Adobe Illustrator 24.2.3, SVG Export Plug-In . SVG Version: 6.00 Build 0)  -->
<svg version="1.1" id="Layer_1" xmlns="http://www.w3.org/2000/svg" xmlns:xlink="http://www.w3.org/1999/xlink" x="0px" y="0px"
	 viewBox="0 0 1547.1 622.9" style="enable-background:new 0 0 1547.1 622.9;" xml:space="preserve">
<style type="text/css">
	.st0{fill:#595657;}
	.st1{fill:#302C2D;}
	.st2{fill:#8A8889;}
	.st3{fill:#918F8F;}
	.st4{fill:#A7A9AC;}
	.st5{fill:#414042;}
	.st6{fill:#4EACAE;}
	.st7{fill:#346B6B;}
	.st8{fill:#F76349;}
	.st9{fill:#F49E92;}
	.st10{opacity:0.5;fill:url(#SVGID_1_);enable-background:new    ;}
	.st11{opacity:0.68;fill:url(#SVGID_2_);enable-background:new    ;}
	.st12{opacity:0.5;fill:url(#SVGID_3_);enable-background:new    ;}
	.st13{opacity:0.12;fill:url(#SVGID_4_);enable-background:new    ;}
	.st14{fill:#4CABAD;}
	.st15{opacity:0.79;fill:url(#SVGID_5_);enable-background:new    ;}
	.st16{opacity:0.76;fill:url(#SVGID_6_);enable-background:new    ;}
	.st17{opacity:0.5;fill:#4CABAD;enable-background:new    ;}
	.st18{opacity:0.5;fill:#C2E6E8;enable-background:new    ;}
	.st19{opacity:0.2;fill:#4CABAD;enable-background:new    ;}
	.st20{fill:#F1634B;}
	.st21{fill:#C0EDED;}
	.st22{fill:#BC4A3B;}
	.st23{clip-path:url(#SVGID_8_);}
	.st24{fill:#14646D;}
	.st25{opacity:0.5;fill:#F1634B;enable-background:new    ;}
	.st26{opacity:0.68;fill:#F1634B;enable-background:new    ;}
	.st27{fill:#F49E91;}
	.st28{fill:none;stroke:#4CABAD;stroke-width:3;stroke-linecap:round;stroke-miterlimit:10;}
	.st29{opacity:0.5;fill:#EF634B;enable-background:new    ;}
	.st30{opacity:0.68;fill:#EF634B;enable-background:new    ;}
	.st31{fill:#4EABAD;}
	.st32{fill:none;stroke:#F1634B;stroke-width:3;stroke-linecap:round;stroke-miterlimit:10;}
	.st33{fill:none;stroke:#F1634B;stroke-width:3;stroke-miterlimit:10;}
	.st34{opacity:0.5;fill:#BC4A3B;enable-background:new    ;}
	.st35{opacity:0.5;fill:#F49E91;enable-background:new    ;}
	.st36{opacity:0.77;fill:#4CABAD;enable-background:new    ;}
	.st37{opacity:0.5;fill:#F76349;enable-background:new    ;}
	.st38{opacity:0.2;fill:#F76349;enable-background:new    ;}
	.st39{font-family:'ProximaNova-Regular';}
	.st40{font-size:43.08px;}
	.st41{letter-spacing:1;}
	.st42{fill:#F2634B;}
	.st43{fill:#3A8283;}
	.st44{font-size:28.43px;}
	.st45{fill:#0A3237;}
	.st46{fill:#E6E7E8;}
	.st47{fill:#58595B;}
</style>
<polygon class="st0" points="55.3,138.2 55.3,138.2 19.8,102.8 "/>
<path class="st1" d="M19.8,31.6v71.2l35.4,35.4h71.2V67L91,31.6H19.8 M98.7,123.5l-14.2-14.2V95h-37v28.5l-14.2-14.2V80.8h51.2
	L98.7,95L98.7,123.5z"/>
<rect x="126.4" y="67" class="st0" width="0" height="71.2"/>
<polygon class="st2" points="84.5,102.9 84.5,109.3 98.7,123.4 98.7,95 84.5,95 "/>
<polygon class="st3" points="33.3,80.8 47.5,95 59,95 84.5,95 98.7,95 84.5,80.8 "/>
<polygon class="st2" points="33.3,95 33.3,102.9 33.3,109.3 47.5,123.4 47.5,95 33.3,80.8 "/>
<polygon class="st0" points="227,137.6 227,137.6 191.5,102.2 "/>
<path class="st1" d="M191.5,31v71.2l35.4,35.4h71.2V66.5L262.7,31H191.5 M270.3,122.8l-14.1-14.2V94.4h-37v28.5L205,108.6V80.2h51.2
	l14.2,14.2L270.3,122.8z"/>
<rect x="298.1" y="66.4" class="st0" width="0" height="71.2"/>
<polygon class="st2" points="256.2,102.2 256.2,108.6 270.4,122.8 270.4,94.4 256.2,94.4 "/>
<polygon class="st3" points="205,80.2 219.2,94.4 230.7,94.4 256.2,94.4 270.4,94.4 256.2,80.2 "/>
<polygon class="st2" points="205,94.4 205,102.2 205,108.6 219.2,122.8 219.2,94.4 205,80.2 "/>
<polygon class="st0" points="393,137.6 393,137.6 357.6,102.2 "/>
<path class="st1" d="M357.6,31v71.2l35.4,35.4h71.2V66.5L428.7,31H357.6 M436.4,122.8l-14.2-14.2V94.4h-37v28.5L371,108.6V80.2h51.2
	l14.2,14.2V122.8z"/>
<rect x="464.2" y="66.4" class="st0" width="0" height="71.2"/>
<polygon class="st2" points="422.2,102.2 422.2,108.6 436.4,122.8 436.4,94.4 422.2,94.4 "/>
<polygon class="st3" points="371,80.2 385.2,94.4 396.7,94.4 422.2,94.4 436.4,94.4 422.2,80.2 "/>
<polygon class="st2" points="371,94.4 371,102.2 371,108.6 385.2,122.8 385.2,94.4 371,80.2 "/>
<path class="st4" d="M20,122.1v-15.7l3,3c3.1,3.1,5,8.7,5,12.9s-1.9,6-5,2.8L20,122.1z M27.5,121.7c0-3.9-1.6-8.8-4.5-11.7l-2.5-2.5
	v14.3l2.5,2.5C25.9,127.2,27.5,125.7,27.5,121.7L27.5,121.7z"/>
<path class="st4" d="M30.4,132.5v-15.8l6.2,6.2v0.7l-5.7-5.7v6.6l5.6,5.6v0.7l-5.6-5.6v7l5.7,5.7v0.7L30.4,132.5z"/>
<path class="st4" d="M38.3,138.2l0.4-0.2c0.6,2,1.7,3.9,3.1,5.5c2.3,2.3,2.9,0.8,2.9-0.6c0-5.2-6.2-8.8-6.2-14.1
	c0-2.5,1.5-2.5,3.2-0.8c1.5,1.6,2.6,3.4,3.3,5.5l-0.4,0.2c-0.6-1.9-1.6-3.6-2.9-5c-1.5-1.5-2.6-1.3-2.6,0.7c0,4.5,6.1,8.3,6.1,14.1
	c0,1.8-0.7,3.6-3.5,0.8C40.3,142.4,39.1,140.4,38.3,138.2z"/>
<path class="st4" d="M53.8,155.8l-4.5-12.2l-1.2,0.8v5.7l-0.5-0.5v-15.7l0.5,0.5v9.1l5.3-3.8l0.7,0.6l-4.4,3.2l4.9,13L53.8,155.8z"
	/>
<path class="st5" d="M55.7,154.3l1.8-2.5c1.3,1.4,3.1,2.1,5,2.1c1.8,0,2.7-0.9,2.7-1.8c0-2.8-9.1-0.9-9.1-6.8c0-2.6,2.3-4.8,6-4.8
	c2.3-0.1,4.5,0.7,6.1,2.2l-1.9,2.4c-1.3-1.1-2.9-1.7-4.6-1.7c-1.4,0-2.2,0.6-2.2,1.6c0,2.5,9,0.8,9,6.7c0,2.9-2,5-6.3,5
	C59.8,156.9,57.5,156,55.7,154.3z"/>
<path class="st5" d="M70.9,156.5v-15.7h7.4c2.8-0.1,5.2,2,5.3,4.8c0.1,2.8-2,5.2-4.8,5.3c-0.2,0-0.3,0-0.5,0h-4v5.6H70.9z
	 M80.1,145.8c0-1.2-0.9-2.1-2.1-2.1c-0.1,0-0.2,0-0.2,0h-3.6v4.2h3.6c1.2,0.1,2.2-0.8,2.3-1.9C80.1,145.9,80.1,145.9,80.1,145.8
	L80.1,145.8z"/>
<path class="st5" d="M94.7,156.5l-1-2.7H87l-1,2.7h-3.8l6.1-15.7h4.2l6.1,15.7H94.7z M90.4,144.1l-2.4,6.8h4.9L90.4,144.1z"/>
<path class="st5" d="M98.5,148.6c0-4.8,3.7-8.1,8.4-8.1c2.7-0.1,5.3,1.4,6.6,3.8l-2.9,1.4c-0.7-1.4-2.1-2.3-3.7-2.3
	c-2.9,0.2-5,2.6-4.8,5.5c0.2,2.6,2.2,4.7,4.8,4.8c1.6,0,3-0.9,3.7-2.3l2.9,1.4c-1.3,2.4-3.8,3.9-6.6,3.9
	C102.1,156.8,98.5,153.5,98.5,148.6z"/>
<path class="st5" d="M115.4,156.5v-15.7h11.1v3h-7.8v3.3h7.6v2.9h-7.6v3.6h7.8v2.9H115.4z"/>
<path class="st4" d="M162.8,166.1v-20.6h6.1c5.5-0.2,10.1,4.1,10.2,9.6c0,0.2,0,0.4,0,0.7c0,5.6-3.9,10.3-10.2,10.3L162.8,166.1z
	 M178.1,155.8c0-5.1-3.3-9.4-9.1-9.4h-5.1v18.7h5.1C174.7,165.2,178.1,161,178.1,155.8L178.1,155.8z"/>
<path class="st4" d="M183.9,166.1v-20.6h12.6v0.9h-11.6v8.6h11.4v0.9h-11.4v9.2h11.6v0.9H183.9z"/>
<path class="st4" d="M200,163.2l0.8-0.7c1.6,1.9,3.9,3.1,6.4,3.1c4.8,0,6-2.7,6-4.7c0-6.8-12.5-3.4-12.5-10.4c0-3.3,3.1-5.2,6.4-5.2
	c2.5-0.1,5,0.9,6.6,2.9l-0.8,0.7c-1.4-1.8-3.6-2.8-5.9-2.7c-3,0-5.4,1.8-5.4,4.3c0,5.9,12.5,2.8,12.5,10.4c0,2.3-1.5,5.6-7,5.6
	C204.5,166.6,201.8,165.4,200,163.2z"/>
<path class="st4" d="M231.4,166.1l-9.1-10.1l-2.5,2.7v7.4h-1v-20.5h1v11.9l10.7-11.9h1.3l-8.9,9.8l9.9,10.7H231.4z"/>
<path class="st5" d="M234.3,163.2l2.4-3.3c1.7,1.8,4.1,2.8,6.5,2.8c2.4,0,3.6-1.1,3.6-2.3c0-3.6-11.8-1.1-11.8-8.9
	c0-3.4,2.9-6.2,7.8-6.2c2.9-0.1,5.8,0.9,8,2.9l-2.4,3.2c-1.6-1.5-3.8-2.3-6-2.2c-1.9,0-2.9,0.8-2.9,2.1c0,3.3,11.8,1.1,11.8,8.8
	c0,3.8-2.7,6.6-8.2,6.6C239.8,166.6,236.6,165.4,234.3,163.2z"/>
<path class="st5" d="M254.2,166.1v-20.6h9.6c4.5,0,6.9,3,6.9,6.6s-2.5,6.6-6.9,6.6h-5.2v7.3H254.2z M266.2,152.2
	c0-1.5-1.2-2.8-2.7-2.8c-0.1,0-0.2,0-0.3,0h-4.6v5.5h4.6c1.5,0.2,2.9-0.9,3-2.5C266.2,152.4,266.2,152.3,266.2,152.2L266.2,152.2z"
	/>
<path class="st5" d="M285.3,166.1l-1.3-3.5h-8.8l-1.3,3.5h-5l8-20.6h5.5l7.9,20.6H285.3z M279.7,149.9l-3.1,8.8h6.4L279.7,149.9z"/>
<path class="st5" d="M290.2,155.8c0-6.3,4.8-10.6,10.9-10.6c3.6-0.1,6.9,1.8,8.6,5l-3.8,1.9c-0.9-1.8-2.8-3-4.8-3
	c-3.7,0.2-6.6,3.4-6.4,7.1c0.2,3.4,2.9,6.2,6.4,6.4c2,0,3.9-1.2,4.8-3l3.8,1.8c-1.7,3.2-5,5.1-8.6,5.1
	C295,166.5,290.2,162.2,290.2,155.8z"/>
<path class="st5" d="M312.4,166.1v-20.6h14.5v3.9h-10.2v4.3h10v3.9h-10v4.6h10.2v3.9H312.4z"/>
<path class="st4" d="M393.5,160v-20.6h6.1c5.5-0.2,10.1,4.1,10.2,9.6c0,0.2,0,0.4,0,0.7c0,5.6-3.9,10.3-10.2,10.3L393.5,160z
	 M408.8,149.8c0-5.2-3.3-9.4-9.1-9.4h-5.1v18.7h5.1C405.4,159.1,408.7,155,408.8,149.8L408.8,149.8z"/>
<path class="st4" d="M414.5,160v-20.6h12.6v1h-11.6v8.6h11.4v0.9h-11.4v9.2h11.6v0.9L414.5,160z"/>
<path class="st4" d="M430.7,157.1l0.8-0.7c1.6,1.9,3.9,3.1,6.4,3.1c4.8,0,6-2.7,6-4.7c0-6.8-12.5-3.4-12.5-10.4c0-3.3,3-5.2,6.4-5.2
	c2.5-0.1,5,0.9,6.6,2.9l-0.8,0.7c-1.4-1.8-3.6-2.8-5.9-2.7c-3,0-5.4,1.8-5.4,4.3c0,5.9,12.5,2.8,12.5,10.4c0,2.3-1.5,5.6-7,5.6
	C435.1,160.5,432.4,159.3,430.7,157.1z"/>
<path class="st4" d="M462.1,160l-9.1-10.1l-2.5,2.7v7.4h-1v-20.6h1v11.9l10.7-11.9h1.4l-9,9.9l9.9,10.7H462.1z"/>
<path class="st5" d="M484.5,160l-3.4-2.4c1.8-1.7,2.8-4.1,2.8-6.6c0-2.4-1.1-3.6-2.3-3.6c-3.7,0-1.1,12-9,12c-3.5,0-6.3-3-6.3-7.9
	c-0.1-3,0.9-5.9,2.9-8.1l3.2,2.5c-1.5,1.7-2.3,3.8-2.3,6.1c0,1.9,0.8,3,2.1,3c3.3,0,1.1-11.9,8.9-11.9c3.8,0,6.7,2.7,6.7,8.3
	C487.9,154.5,486.8,157.7,484.5,160z"/>
<path class="st5" d="M487.4,139.9h-20.8v-9.7c0-4.5,3-7,6.7-7s6.7,2.5,6.7,7v5.3h7.4L487.4,139.9z M473.3,127.7
	c-1.5,0-2.8,1.2-2.8,2.8c0,0.1,0,0.2,0,0.3v4.7h5.6v-4.7c0.1-1.5-1-2.9-2.5-3.1C473.5,127.7,473.4,127.7,473.3,127.7z"/>
<path class="st5" d="M487.4,108.4l-3.5,1.3v8.9l3.5,1.3v5.1l-20.8-8v-5.6l20.8-8V108.4z M471,114.1l9,3.2v-6.5L471,114.1z"/>
<path class="st5" d="M477,103.5c-6.4,0-10.8-4.8-10.8-11.1c-0.1-3.6,1.9-7,5.1-8.7l1.9,3.8c-1.8,1-3,2.8-3,4.9
	c0.1,3.8,3.3,6.7,7.1,6.6c3.6-0.1,6.4-3,6.6-6.6c0-2.1-1.2-3.9-3-4.9l1.8-3.8c3.2,1.7,5.2,5.1,5.1,8.7
	C487.8,98.6,483.4,103.5,477,103.5z"/>
<path class="st5" d="M487.4,81h-20.8V66.3h3.9v10.3h4.4V66.5h3.9v10.1h4.7V66.3h3.9L487.4,81z"/>
<polygon class="st6" points="945.1,179.5 896.5,130.9 896.5,34.5 993,34.5 1041.5,83 1041.5,179.5 "/>
<path class="st7" d="M992,37l23.5,23.5L1039,84v93h-92.9l-23.5-23.5L899,129.9V37H992 M994,32H894v100l25,25l25,25h100V82l-25-25
	L994,32z"/>
<path class="st8" d="M987,92.9v42.8l21.3,21.3v-42.8L987,92.9z"/>
<path class="st8" d="M910,92.9v42.8l21.3,21.3v-42.8L910,92.9z"/>
<path class="st8" d="M987,92.9h-77l21.3,21.3h77L987,92.9z"/>
<polygon class="st6" points="570.5,180 522,131.4 522,35 618.5,35 667,83.5 667,180 "/>
<path class="st7" d="M617.4,37.5L641,61l23.5,23.5v92.9h-92.9L548,153.9l-23.5-23.5V37.5H617.4 M619.5,32.5h-100v100l25,25l25,25
	h100v-100l-25-25L619.5,32.5z"/>
<polygon class="st9" points="704,180 704,83.5 752.5,35 849,35 849,131.4 800.5,180 "/>
<path class="st8" d="M846.5,37.5v92.9L823,153.9l-23.5,23.5h-92.9V84.5L730,61l23.5-23.5H846.5 M851.5,32.5h-100l-25,25l-25,25v100
	h100l25-25l25-25V32.5z"/>
<linearGradient id="SVGID_1_" gradientUnits="userSpaceOnUse" x1="142.0757" y1="349.6839" x2="197.3957" y2="349.6839" gradientTransform="matrix(1 0 0 -1 0 623.9279)">
	<stop  offset="0" style="stop-color:#4CABAD"/>
	<stop  offset="1" style="stop-color:#F1634B"/>
</linearGradient>
<polyline class="st10" points="197.4,246.3 142.1,191 142.1,246.3 142.1,301.7 142.1,302.2 197.4,357.5 "/>
<linearGradient id="SVGID_2_" gradientUnits="userSpaceOnUse" x1="188.5639" y1="251.1671" x2="39.785" y2="337.0664" gradientTransform="matrix(1 0 0 -1 0 623.9279)">
	<stop  offset="0" style="stop-color:#4CABAD"/>
	<stop  offset="1" style="stop-color:#F1634B"/>
</linearGradient>
<polyline class="st11" points="197.4,357.5 142.1,302.2 141.6,302.2 86.3,302.2 31,302.2 86.3,357.5 197.4,357.5 "/>
<linearGradient id="SVGID_3_" gradientUnits="userSpaceOnUse" x1="30.9557" y1="377.3389" x2="142.0857" y2="377.3389" gradientTransform="matrix(1 0 0 -1 0 623.9279)">
	<stop  offset="0" style="stop-color:#4CABAD"/>
	<stop  offset="1" style="stop-color:#F1634B"/>
</linearGradient>
<path class="st12" d="M31,191v111.1h110.6l0.5-0.5V191H31z M86.5,246.6l-0.2,0.2v-0.5h0.5L86.5,246.6z"/>
<linearGradient id="SVGID_4_" gradientUnits="userSpaceOnUse" x1="30.9557" y1="405.2489" x2="197.3957" y2="405.2489" gradientTransform="matrix(1 0 0 -1 0 623.9279)">
	<stop  offset="0" style="stop-color:#4CABAD"/>
	<stop  offset="1" style="stop-color:#F1634B"/>
</linearGradient>
<polyline class="st13" points="197.4,246.3 142.1,191 31,191 86.3,246.3 86.8,246.3 142.1,246.3 197.4,246.3 "/>
<polygon class="st14" points="131.9,267.8 131.9,290 131.9,302.3 131.9,312.3 154,334.4 154,290 "/>
<polygon class="st14" points="52,267.8 52,290 52,302.3 52,312.3 74.1,334.4 74.1,290 "/>
<polygon class="st14" points="131.9,267.8 52,267.8 74.1,290 92.1,290 131.9,290 154,290 "/>
<linearGradient id="SVGID_5_" gradientUnits="userSpaceOnUse" x1="86.2657" y1="322.0289" x2="197.3957" y2="322.0289" gradientTransform="matrix(1 0 0 -1 0 623.9279)">
	<stop  offset="0" style="stop-color:#4CABAD"/>
	<stop  offset="1" style="stop-color:#F1634B"/>
</linearGradient>
<polyline class="st15" points="197.4,246.3 142.1,246.3 86.8,246.3 86.5,246.6 86.3,246.8 86.3,302.2 86.3,357.5 197.4,357.5 "/>
<linearGradient id="SVGID_6_" gradientUnits="userSpaceOnUse" x1="30.9557" y1="349.6839" x2="86.2657" y2="349.6839" gradientTransform="matrix(1 0 0 -1 0 623.9279)">
	<stop  offset="0" style="stop-color:#4CABAD"/>
	<stop  offset="1" style="stop-color:#F1634B"/>
</linearGradient>
<polygon class="st16" points="31,191 31,302.2 86.3,357.5 86.3,302.2 86.3,246.8 86.3,246.3 "/>
<polyline class="st17" points="559.8,310.8 430.5,181.5 430.5,290.1 430.5,290.6 559.8,419.9 "/>
<polyline class="st14" points="559.8,419.9 430.5,290.6 430,290.6 396.4,365.6 450.7,419.9 559.8,419.9 "/>
<path class="st17" d="M321.4,181.5v109.1l183.6,75l-74.5-75.5V181.5H321.4z M450.9,311.1l-0.2,0.2v-0.5h0.5L450.9,311.1z"/>
<polyline class="st18" points="559.8,310.8 430.5,181.5 321.4,181.5 450.7,310.8 451.2,310.8 559.8,310.8 "/>
<polyline class="st19" points="559.8,310.8 451.2,310.8 450.9,311.1 450.7,311.3 450.7,419.9 559.8,419.9 "/>
<polygon class="st17" points="321.4,181.5 321.4,290.6 450.7,419.9 450.7,311.3 450.7,310.8 "/>
<polygon class="st20" points="291.6,277.3 291.6,299 291.6,311.1 291.6,320.9 313.3,342.7 313.3,299 "/>
<polygon class="st20" points="213.1,277.3 213.1,299 213.1,311.1 213.1,320.9 234.8,342.7 234.8,299 "/>
<polygon class="st20" points="291.6,277.3 213.1,277.3 234.8,299 252.5,299 291.6,299 313.3,299 "/>
<path class="st6" d="M1138.9,32.6h125c20.4,0,37,16.6,37,37v125c0,20.4-16.6,37-37,37h-125c-20.4,0-37-16.6-37-37v-125
	C1101.9,49.1,1118.5,32.6,1138.9,32.6z"/>
<path class="st21" d="M852.5,229.3h125c20.4,0,37,16.6,37,37v125c0,20.4-16.6,37-37,37h-125c-20.4,0-37-16.6-37-37v-125
	C815.5,245.9,832.1,229.3,852.5,229.3z"/>
<polygon class="st21" points="1275.7,104.5 1253.2,82 1228.2,57 1131.7,57 1179.2,104.5 "/>
<path class="st21" d="M1165.5,139.2V182l-21.3-21.3v-42.8h32v-9.4l-48-48V157l25,25l23,23v-65.8H1165.5z"/>
<path class="st21" d="M1181.2,117.9h40l21.3,21.3V182l-21.3-21.3v-21.5h-40V207h97v-97.5h-97L1181.2,117.9z"/>
<path class="st8" d="M1221.2,160.7l21.3,21.3v-42.8h-21.3L1221.2,160.7z"/>
<path class="st8" d="M1144.2,160.7l21.3,21.3v-42.8l-21.3-21.3L1144.2,160.7z"/>
<path class="st8" d="M1165.5,139.2h10.7v-21.3h-32L1165.5,139.2z"/>
<path class="st8" d="M1221.2,139.2v-21.3h-40v21.3H1221.2z"/>
<path class="st8" d="M1242.5,139.2l-21.3-21.3v21.3H1242.5z"/>
<polygon class="st8" points="1179.2,104.5 1131.7,57 1128.2,57 1128.2,60.6 1176.2,108.6 1176.2,117.9 1181.2,117.9 1181.2,109.5 
	1278.2,109.5 1278.2,107 1275.7,104.5 "/>
<path class="st8" d="M1176.2,139.2V205l2,2h3v-67.8H1176.2z"/>
<path class="st8" d="M1181.2,139.2v-21.3h-5v21.3H1181.2z"/>
<polygon class="st21" points="773.3,292.6 744.7,264 712.9,232.2 590.2,232.2 650.6,292.6 "/>
<path class="st21" d="M633.2,336.8v54.4l-27.1-27.1v-54.4h40.7v-11.9l-61-61v122.7l31.7,31.8l29.3,29.2v-83.7H633.2z"/>
<path class="st21" d="M653.1,309.7H704l27.1,27.1v54.4L704,364.1v-27.3h-50.9V423h123.4V299H653.1V309.7z"/>
<path class="st8" d="M704,364.1l27.1,27.1v-54.4H704V364.1z"/>
<path class="st8" d="M606.1,364.1l27.1,27.1v-54.4l-27.1-27.1V364.1z"/>
<path class="st8" d="M633.2,336.8h13.6v-27.1h-40.7L633.2,336.8z"/>
<path class="st8" d="M704,336.8v-27.1h-50.9v27.1H704z"/>
<path class="st8" d="M731.1,336.8L704,309.7v27.1H731.1z"/>
<polygon class="st8" points="650.6,292.6 590.2,232.2 585.7,232.2 585.7,236.7 646.8,297.8 646.8,309.7 653.1,309.7 653.1,299 
	776.5,299 776.5,295.8 773.3,292.6 "/>
<path class="st8" d="M646.8,336.8v83.7l2.5,2.5h3.8v-86.2H646.8z"/>
<path class="st8" d="M653.1,336.8v-27.1h-6.4v27.1H653.1z"/>
<path class="st22" d="M992,351V407l-27.8-27.9V351H992z"/>
<path class="st8" d="M964.2,323.2L992,351h-27.8V323.2z"/>
<path class="st8" d="M964.2,323.2V351h-72.8l-27.9-27.9H964.2z"/>
<path class="st22" d="M891.4,351V407l-27.9-27.9v-55.9L891.4,351z"/>
<g>
	<defs>
		<path id="SVGID_7_" d="M852.5,229.3h125c20.4,0,37,16.6,37,37v125c0,20.4-16.6,37-37,37h-125c-20.4,0-37-16.6-37-37v-125
			C815.5,245.9,832.1,229.3,852.5,229.3z"/>
	</defs>
	<clipPath id="SVGID_8_">
		<use xlink:href="#SVGID_7_"  style="overflow:visible;"/>
	</clipPath>
	<g class="st23">
		<polygon class="st24" points="847.7,286.8 845.5,286 744.2,183.6 744.2,179.4 750.6,173 754.9,173.1 852.7,271.8 1031.5,271.8 
			1034.5,274.8 1034.5,283.8 1031.5,286.8 		"/>
		<polygon class="st24" points="1031.5,283.8 847.7,283.8 746.4,181.5 752.7,175.2 851.4,274.8 1031.5,274.8 		"/>
		<polygon class="st24" points="845.5,483.8 842.5,480.8 842.5,278.8 845.5,275.8 854.5,275.8 857.5,278.8 857.5,480.8 854.5,483.8 
					"/>
		<rect x="845.5" y="278.8" class="st24" width="9" height="202"/>
	</g>
</g>
<polyline class="st25" points="633.9,495.9 587.8,449.8 587.8,495.9 587.8,542 587.8,542.4 633.9,588.5 "/>
<polyline class="st26" points="633.9,588.5 587.8,542.4 587.4,542.4 541.3,542.4 495.2,542.4 541.3,588.5 633.9,588.5 "/>
<path class="st25" d="M495.2,449.8v92.6h92.2l0.4-0.4v-92.2H495.2z M541.5,496.1l-0.2,0.2v-0.4h0.4L541.5,496.1z"/>
<polygon class="st27" points="587.8,449.8 495.2,449.8 541.3,495.9 541.7,495.9 587.8,495.9 633.9,495.9 "/>
<polygon class="st27" points="633.9,495.9 587.8,495.9 541.7,495.9 541.5,496.1 541.3,496.3 541.3,542.4 541.3,588.5 633.9,588.5 
	"/>
<polygon class="st27" points="495.2,449.8 495.2,542.4 541.3,588.5 541.3,542.4 541.3,496.3 541.3,495.9 "/>
<path class="st14" d="M630.9,498.9v86.6h-86.6v-86.6H630.9 M633.9,495.9h-92.2l-0.2,0.2l-0.2,0.2v92.2h92.6L633.9,495.9L633.9,495.9
	z"/>
<polyline class="st28" points="541.5,496.1 495.8,451.8 495.8,541.9 541.3,587.2 "/>
<polygon class="st14" points="1280.3,210.9 1131.1,210.9 1128.7,208.5 1278.2,208.8 "/>
<polygon class="st14" points="588.1,450.1 633.9,495.9 633.9,498 587.4,450.9 "/>
<polygon class="st14" points="579.3,513.8 579.3,532.2 579.3,542.5 579.3,550.8 597.7,569.2 597.7,532.2 "/>
<polygon class="st14" points="512.7,513.8 512.7,532.2 512.7,542.5 512.7,550.8 531.1,569.2 531.1,532.2 "/>
<polygon class="st14" points="579.3,513.8 512.7,513.8 531.1,532.2 546.1,532.2 579.3,532.2 597.7,532.2 "/>
<polyline class="st29" points="223.2,456.1 164.7,397.6 164.7,456.1 164.7,514.5 164.7,515 223.2,573.5 "/>
<polyline class="st30" points="223.2,573.5 164.7,515 164.2,515 105.8,515 47.4,515 105.8,573.5 223.2,573.5 "/>
<path class="st29" d="M47.4,397.6V515h116.9l0.5-0.5V397.6H47.4z M106.1,456.3l-0.3,0.3v-0.5h0.5L106.1,456.3z"/>
<polygon class="st31" points="106,455.6 48.6,398.1 164.5,398.1 222,455.6 "/>
<path class="st31" d="M164.3,398.6l56.4,56.4H106.2l-56.4-56.4H164.3 M164.7,397.6H47.4l58.4,58.4h117.4L164.7,397.6L164.7,397.6z"
	/>
<polygon class="st31" points="223.2,456.1 164.7,456.1 106.3,456.1 106.1,456.3 105.8,456.6 105.8,515 105.8,573.5 223.2,573.5 "/>
<polygon class="st31" points="47.4,397.6 47.4,515 105.8,573.5 105.8,515 105.8,456.6 105.8,456.1 "/>
<path class="st20" d="M220.2,459.1v111.4H108.8V459.1H220.2 M223.2,456.1H106.3l-0.3,0.3l-0.3,0.3v116.9h117.4V456.1z"/>
<polyline class="st32" points="106.1,456.3 48.2,400.2 48.2,514.4 105.8,571.9 "/>
<polygon class="st20" points="166.4,399.3 48.9,399.3 47,397.4 164.7,397.6 "/>
<polygon class="st20" points="165.1,398 223.2,456.1 223.2,458.7 164.3,399.1 "/>
<polygon class="st20" points="154,478.8 154,502.2 154,515.2 154,525.7 177.4,549.1 177.4,502.2 "/>
<polygon class="st20" points="69.6,478.8 69.6,502.2 69.6,515.2 69.6,525.7 92.9,549.1 92.9,502.2 "/>
<polygon class="st20" points="154,478.8 69.6,478.8 92.9,502.2 111.9,502.2 154,502.2 177.4,502.2 "/>
<polyline class="st33" points="164.4,399.5 164.4,515.3 221.6,571.9 "/>
<polygon class="st20" points="167.8,515.1 50.3,515.1 48.4,513.2 166.2,513.4 "/>
<polyline class="st17" points="1222.5,308.7 1165.7,251.9 1165.7,308.7 1165.7,365.6 1165.7,366.1 1222.5,422.9 "/>
<polyline class="st34" points="1222.5,422.9 1165.7,366.1 1165.1,366.1 1108.3,366.1 1051.5,366.1 1108.3,422.9 1222.5,422.9 "/>
<path class="st35" d="M1051.5,251.9v114.1h113.6l0.5-0.5V251.9H1051.5z M1108.6,309l-0.3,0.2v-0.5h0.5L1108.6,309z"/>
<polyline class="st34" points="1222.5,308.7 1165.7,251.9 1051.5,251.9 1108.3,308.7 1108.8,308.7 1165.7,308.7 1222.5,308.7 "/>
<polygon class="st14" points="1155.2,330.8 1155.2,353.6 1155.2,366.2 1155.2,376.5 1177.9,399.2 1177.9,353.6 "/>
<polygon class="st14" points="1073.1,330.8 1073.1,353.6 1073.1,366.2 1073.1,376.5 1095.8,399.2 1095.8,353.6 "/>
<polygon class="st14" points="1155.2,330.8 1073.1,330.8 1095.8,353.6 1114.3,353.6 1155.2,353.6 1177.9,353.6 "/>
<polyline class="st25" points="1222.5,308.7 1165.7,308.7 1108.8,308.7 1108.6,309 1108.3,309.3 1108.3,366.1 1108.3,422.9 
	1222.5,422.9 "/>
<polygon class="st17" points="1051.5,251.9 1051.5,366.1 1108.3,422.9 1108.3,366.1 1108.3,309.3 1108.3,308.7 "/>
<polyline class="st34" points="799.9,497.3 749.8,447.2 749.8,497.3 749.8,547.5 749.8,547.9 799.9,598.1 "/>
<polyline class="st36" points="799.9,598.1 749.8,547.9 749.3,547.9 699.2,547.9 649,547.9 699.2,598.1 799.9,598.1 "/>
<path class="st17" d="M649,447.2v100.7h100.3l0.5-0.5V447.2H649z M699.4,497.6l-0.2,0.2v-0.5h0.5L699.4,497.6z"/>
<polyline class="st35" points="799.9,497.3 749.8,447.2 649,447.2 699.2,497.3 699.6,497.3 749.8,497.3 799.9,497.3 "/>
<polygon class="st22" points="740.6,516.8 740.6,536.9 740.6,548 740.6,557.1 760.6,577.2 760.6,536.9 "/>
<polygon class="st22" points="668.1,516.8 668.1,536.9 668.1,548 668.1,557.1 688.2,577.2 688.2,536.9 "/>
<polygon class="st22" points="740.6,516.8 668.1,516.8 688.2,536.9 704.5,536.9 740.6,536.9 760.6,536.9 "/>
<polyline class="st17" points="799.9,497.3 749.8,497.3 699.6,497.3 699.4,497.6 699.2,497.8 699.2,547.9 699.2,598.1 799.9,598.1 
	"/>
<polygon class="st25" points="649,447.2 649,547.9 699.2,598.1 699.2,547.9 699.2,497.8 699.2,497.3 "/>
<polyline class="st37" points="407.2,442.1 353.6,388.5 353.6,442.1 353.6,495.6 353.6,496.1 407.2,549.6 "/>
<polyline class="st8" points="407.2,549.6 353.6,496.1 353.1,496.1 299.6,496.1 246,496.1 299.6,549.6 407.2,549.6 "/>
<path class="st37" d="M246,388.5v107.6h107.1l0.5-0.5V388.5H246z M299.8,442.3l-0.2,0.2v-0.5h0.5L299.8,442.3z"/>
<polyline class="st37" points="407.2,442.1 353.6,388.5 246,388.5 299.6,442.1 300.1,442.1 353.6,442.1 407.2,442.1 "/>
<polygon class="st24" points="343.8,462.9 343.8,484.3 343.8,496.2 343.8,505.9 365.2,527.3 365.2,484.3 "/>
<polygon class="st24" points="266.4,462.9 266.4,484.3 266.4,496.2 266.4,505.9 287.8,527.3 287.8,484.3 "/>
<polygon class="st24" points="343.8,462.9 266.4,462.9 287.8,484.3 305.2,484.3 343.8,484.3 365.2,484.3 "/>
<polyline class="st38" points="407.2,442.1 353.6,442.1 300.1,442.1 299.8,442.3 299.6,442.6 299.6,496.1 299.6,549.6 407.2,549.6 
	"/>
<polygon class="st37" points="246,388.5 246,496.1 299.6,549.6 299.6,496.1 299.6,442.6 299.6,442.1 "/>
<path class="st8" d="M441.1,582.4l-5-3.6c2.7-2.6,4.2-6.2,4.2-9.9c0-3.6-1.7-5.4-3.5-5.4c-5.5,0-1.7,18-13.5,18
	c-5.2,0-9.5-4.5-9.5-11.8c-0.2-4.4,1.4-8.8,4.4-12.1l4.9,3.7c-2.2,2.5-3.4,5.7-3.4,9.1c0,2.8,1.3,4.4,3.1,4.4
	c5,0,1.6-17.9,13.3-17.9c5.7,0,10,4.1,10,12.5C446,575.2,444,579.5,441.1,582.4z"/>
<path class="st8" d="M445.5,552.2h-31.2v-14.6c0-6.8,4.6-10.5,10-10.5s10,3.7,10,10.5v7.9h11.2V552.2z M424.4,533.9
	c-2.6,0-4.2,2-4.2,4.6v7.1h8.4v-7.1C428.6,535.9,426.9,533.9,424.4,533.9L424.4,533.9z"/>
<path class="st8" d="M445.5,505l-5.3,1.9v13.4l5.3,2v7.6l-31.2-12.1v-8.3l31.2-12V505z M421,513.6l13.4,4.8v-9.7L421,513.6z"/>
<path class="st8" d="M429.9,497.6c-9.6,0-16.1-7.2-16.1-16.6c-0.1-5.4,2.8-10.5,7.6-13l2.8,5.7c-2.7,1.4-4.5,4.2-4.5,7.3
	c0,5.7,4.3,9.8,10.2,9.8s10.2-4.1,10.2-9.8c0-3.1-1.8-5.9-4.5-7.3l2.8-5.7c4.8,2.5,7.8,7.6,7.7,13
	C446,490.4,439.5,497.6,429.9,497.6z"/>
<path class="st8" d="M445.5,464h-31.2v-22.1h5.8v15.4h6.6v-15.1h5.9v15.1h7.1v-15.4h5.9V464z"/>
<text transform="matrix(1 0 0 1 296.3958 585.4439)" class="st8 st39 st40 st41">DESK</text>
<path class="st42" d="M1274.5,379.2c-7.2,0-12.1-5.4-12.1-12.2c-0.2-4.1,2.1-8,5.7-9.9l2.1,4.3c-2.1,1.1-3.4,3.3-3.4,5.7
	c0,4.1,3.2,7.1,7.7,7.1s7.7-3.1,7.7-7.1c0-2.4-1.3-4.6-3.4-5.7l2.1-4.3c3.7,1.9,5.9,5.8,5.7,9.9
	C1286.6,373.8,1281.7,379.2,1274.5,379.2z"/>
<path class="st42" d="M1262.8,354v-5h19v-9.9h4.4V354L1262.8,354z"/>
<path class="st42" d="M1262.8,335.7v-16.5h4.3v11.5h5.1v-11.3h4.3v11.3h5.4v-11.5h4.3v16.5H1262.8z"/>
<path class="st42" d="M1282.1,300.5v10.4l4,1.5v5.5l-23.3-9v-6.2l23.3-9v5.4L1282.1,300.5z M1277.8,309.6v-7.7l-10.7,3.9
	L1277.8,309.6z"/>
<path class="st42" d="M1270.5,286.5h15.7v5h-23.3v-5.1l15.1-10.9h-15.1v-5h23.3v4.8L1270.5,286.5z"/>
<path class="st42" d="M1293.4,269.9h5v13.9c0,3.3,1.8,5.5,5.4,5.5s5.4-2.2,5.4-5.5v-13.9h5v14c0,5.8-3.3,9.8-10.4,9.8
	s-10.5-4-10.5-9.7L1293.4,269.9z"/>
<path class="st42" d="M1318.9,269.9h10.9c5.1,0,7.8,3.4,7.8,7.5s-2.8,7.5-7.8,7.5h-5.9v8.4h-5L1318.9,269.9z M1329.2,274.2h-5.3v6.4
	h5.3c1.8,0.1,3.3-1.2,3.5-3c0.1-1.8-1.2-3.3-3-3.5C1329.5,274.2,1329.3,274.2,1329.2,274.2z"/>
<polyline class="st17" points="1468.6,337.6 1433.3,302.3 1433.3,337.6 1433.3,372.9 1433.3,373.3 1468.6,408.6 "/>
<polyline class="st14" points="1468.6,408.6 1433.3,373.3 1433,373.3 1330.4,373.3 1295,373.3 1330.3,408.6 1468.6,408.6 "/>
<path class="st17" d="M1295,302.3v71h138l0.3-0.3v-70.7H1295z M1330.5,337.8l-0.2,0.2v-0.3h0.3L1330.5,337.8z"/>
<polyline class="st18" points="1468.6,337.6 1433.3,302.3 1295,302.3 1330.3,337.6 1330.6,337.6 1433.3,337.6 1468.6,337.6 "/>
<polygon class="st20" points="1426.8,351.3 1426.8,365.5 1426.8,373.3 1426.8,379.7 1440.9,393.9 1440.9,365.5 "/>
<polygon class="st20" points="1375.7,351.3 1375.7,365.5 1375.7,373.3 1375.7,379.7 1389.9,393.9 1389.9,365.5 "/>
<polygon class="st20" points="1426.8,351.3 1375.7,351.3 1389.9,365.5 1401.3,365.5 1426.8,365.5 1440.9,365.5 "/>
<polyline class="st19" points="1468.6,337.6 1433.3,337.6 1330.6,337.6 1330.5,337.8 1330.3,337.9 1330.4,373.3 1330.3,408.6 
	1468.6,408.6 "/>
<polygon class="st17" points="1295,302.3 1295,373.3 1330.3,408.6 1330.3,373.3 1330.3,337.9 1330.3,337.6 "/>
<path class="st43" d="M1491,430.2l-3.3-2.4c1.8-1.7,2.8-4.1,2.8-6.5c0-2.4-1.1-3.6-2.3-3.6c-3.6,0-1.1,11.9-8.9,11.9
	c-3.4,0-6.3-3-6.3-7.8c-0.1-2.9,0.9-5.8,2.9-8l3.2,2.4c-1.5,1.6-2.3,3.8-2.2,6c0,1.9,0.8,2.9,2.1,2.9c3.3,0,1.1-11.8,8.8-11.8
	c3.8,0,6.6,2.7,6.6,8.2C1494.4,424.8,1493.2,427.9,1491,430.2z"/>
<path class="st43" d="M1493.9,410.3h-20.6v-9.6c0-4.5,3-6.9,6.6-6.9s6.6,2.5,6.6,6.9v5.2h7.3L1493.9,410.3z M1480,398.2
	c-1.5,0-2.8,1.2-2.8,2.7c0,0.1,0,0.2,0,0.3v4.6h5.6v-4.6c0.1-1.5-1-2.9-2.6-3C1480.1,398.2,1480,398.2,1480,398.2L1480,398.2z"/>
<path class="st43" d="M1493.9,379.1l-3.5,1.3v8.8l3.5,1.3v5l-20.6-8V382l20.6-7.9V379.1z M1477.7,384.8l8.8,3.2v-6.4L1477.7,384.8z"
	/>
<path class="st43" d="M1483.6,374.3c-6.3,0-10.6-4.8-10.6-11c-0.1-3.6,1.8-6.9,5-8.6l1.9,3.8c-1.8,0.9-3,2.8-3,4.8
	c0.2,3.7,3.4,6.6,7.1,6.4c3.4-0.2,6.2-2.9,6.4-6.4c0-2-1.2-3.9-3-4.8l1.8-3.8c3.2,1.7,5.1,5,5.1,8.6
	C1494.3,369.5,1490,374.3,1483.6,374.3z"/>
<path class="st43" d="M1493.9,352.1h-20.6v-14.6h3.9v10.2h4.3v-10h3.9v10h4.7v-10.2h3.8L1493.9,352.1z"/>
<text transform="matrix(1 0 0 1 1395.5258 432.2339)" class="st43 st39 st44 st41">DESK</text>
<path class="st43" d="M1313,420.7h-1.5V419h1.5v-0.5c-0.2-1.5,0.9-2.9,2.4-3.1c0.1,0,0.3,0,0.4,0c0.5,0,1.1,0.1,1.6,0.4l-0.4,1.4
	c-0.2-0.1-0.5-0.2-0.8-0.2c-0.8,0-1.2,0.5-1.2,1.5v0.5h1.8v1.7h-1.8v7.2h-1.9L1313,420.7z"/>
<path class="st43" d="M1317.7,423.5c0.1-2.5,2.2-4.5,4.7-4.5c2.5,0.1,4.5,2.2,4.5,4.7c-0.1,2.5-2.1,4.5-4.6,4.5
	c-2.5,0.1-4.5-1.9-4.6-4.3C1317.7,423.7,1317.7,423.6,1317.7,423.5z M1324.9,423.5c-0.2-1.4-1.5-2.4-3-2.2s-2.4,1.5-2.2,3
	c0.2,1.3,1.3,2.2,2.6,2.2c1.5,0,2.6-1.3,2.6-2.7C1324.9,423.6,1324.9,423.5,1324.9,423.5L1324.9,423.5z"/>
<path class="st43" d="M1328.8,419h1.9v1.3c0.7-0.9,1.8-1.5,2.9-1.5v1.9c-0.2,0-0.4-0.1-0.6-0.1c-0.9,0-1.7,0.5-2.3,1.2v6.1h-1.9V419
	z"/>
<path class="st43" d="M1350.9,422.1c0-1-0.4-1.6-1.5-1.6c-0.8,0.1-1.6,0.5-2.1,1.2v6.2h-1.9v-5.8c0-1-0.4-1.6-1.5-1.6
	c-0.8,0.1-1.5,0.5-2,1.2v6.2h-1.9V419h1.9v1.2c0.7-0.9,1.8-1.4,2.9-1.4c1.1-0.1,2.1,0.6,2.4,1.6c0.7-1,1.8-1.6,3-1.6
	c1.6,0,2.6,0.9,2.6,2.7v6.5h-1.9L1350.9,422.1z"/>
<path class="st43" d="M1354.8,423.5c0.1-2.5,2.2-4.6,4.7-4.5s4.6,2.2,4.5,4.7c-0.1,2.5-2.1,4.5-4.6,4.5c-2.5,0.1-4.5-1.9-4.6-4.3
	C1354.8,423.7,1354.8,423.6,1354.8,423.5z M1362,423.5c0.2-1.4-0.8-2.7-2.2-2.9c-1.4-0.2-2.7,0.8-2.9,2.2c0,0.2,0,0.5,0,0.7
	c0,1.6,0.9,3,2.6,3S1362,425,1362,423.5z"/>
<path class="st43" d="M1366,419h1.9v1.3c0.7-0.9,1.8-1.5,2.9-1.5v1.9c-0.2,0-0.4-0.1-0.6-0.1c-0.9,0-1.7,0.5-2.3,1.2v6.1h-1.9V419z"
	/>
<path class="st43" d="M1376.4,418.7c2.7,0,4.4,2,4.4,4.9v0.5h-6.9c0.1,1.5,1.4,2.5,2.8,2.5c0.9,0,1.8-0.4,2.5-1l0.9,1.3
	c-1,0.9-2.3,1.3-3.6,1.3c-2.6-0.1-4.6-2.2-4.6-4.8C1372,420.8,1373.9,418.9,1376.4,418.7L1376.4,418.7z M1373.8,422.7h5
	c0-1.3-1.1-2.4-2.4-2.4c0,0-0.1,0-0.1,0C1375,420.4,1373.9,421.4,1373.8,422.7L1373.8,422.7z"/>
<path class="st45" d="M1360.2,30.1h125c20.4,0,37,16.6,37,37v125c0,20.4-16.6,37-37,37h-125c-20.4,0-37-16.6-37-37v-125
	C1323.2,46.7,1339.8,30.1,1360.2,30.1z"/>
<polyline class="st17" points="1504.4,102.2 1450.1,47.9 1450.1,102.2 1450.1,156.5 1450.1,157 1504.4,211.3 "/>
<polyline class="st14" points="1504.4,211.3 1450.1,157 1449.6,157 1395.3,157 1341,157 1395.3,211.3 1504.4,211.3 "/>
<path class="st17" d="M1341,47.9V157h108.6l0.5-0.5V47.9H1341z M1395.6,102.5l-0.2,0.2v-0.5h0.5L1395.6,102.5z"/>
<polyline class="st18" points="1504.4,102.2 1450.1,47.9 1341,47.9 1395.3,102.2 1395.8,102.2 1450.1,102.2 1504.4,102.2 "/>
<polygon class="st20" points="1440.1,123.3 1440.1,145.1 1440.1,157.1 1440.1,167 1461.9,188.7 1461.9,145.1 "/>
<polygon class="st20" points="1361.6,123.3 1361.6,145.1 1361.6,157.1 1361.6,167 1383.4,188.7 1383.4,145.1 "/>
<polygon class="st20" points="1440.1,123.3 1361.6,123.3 1383.4,145.1 1401,145.1 1440.1,145.1 1461.9,145.1 "/>
<polyline class="st19" points="1504.4,102.2 1450.1,102.2 1395.8,102.2 1395.6,102.5 1395.3,102.7 1395.3,157 1395.3,211.3 
	1504.4,211.3 "/>
<polygon class="st17" points="1341,47.9 1341,157 1395.3,211.3 1395.3,157 1395.3,102.7 1395.3,102.2 "/>
<path class="st25" d="M1094.1,498.6l-42.6-42.7v85.7l42.7,42.7"/>
<path class="st26" d="M1094.1,584.3l-42.6-42.7h-85.7l42.7,42.7H1094.1"/>
<path class="st25" d="M965.8,456v85.7h85.3l0.4-0.4V456H965.8z M1008.6,498.8l-0.2,0.2v-0.4h0.4L1008.6,498.8z"/>
<polygon class="st6" points="1008.6,498.3 966.4,456.2 1051.4,456.2 1093.5,498.3 "/>
<path class="st6" d="M1051.3,456.5l41.6,41.6h-84.2l-41.6-41.6H1051.3 M1051.5,455.9h-85.7l42.7,42.7h85.7L1051.5,455.9
	L1051.5,455.9z"/>
<path class="st6" d="M1094.1,498.6h-85.3l-0.4,0.4v85.3h85.7V498.6z"/>
<path class="st6" d="M965.8,456v85.7l42.7,42.7v-85.7L965.8,456z"/>
<path class="st8" d="M1092.6,500.2v82.6H1010v-82.6H1092.6 M1094.1,498.6h-85.3l-0.4,0.4v85.3h85.7V498.6L1094.1,498.6z"/>
<path class="st8" d="M1008.5,584c-0.2,0-0.4-0.1-0.6-0.2l-42.4-42.2v-85.8l43.7,42.4c0.3,0.3,0.4,0.9,0,1.2c-0.3,0.3-0.9,0.4-1.2,0
	l0,0l-40.8-39.6v81l41.8,41.7c0.3,0.3,0.3,0.9,0,1.2C1008.9,583.9,1008.7,584,1008.5,584L1008.5,584z"/>
<polygon class="st8" points="1052.7,457.2 966.9,457.2 965.5,455.8 1051.5,456 "/>
<polygon class="st8" points="1051.8,456.2 1094.1,498.6 1094.1,500.6 1051.1,457 "/>
<path class="st8" d="M1043.7,515.2v34.3l17.1,17.1v-34.3L1043.7,515.2z"/>
<path class="st8" d="M982,515.2v34.3l17.1,17.1v-34.3L982,515.2z"/>
<path class="st8" d="M1043.7,515.2H982l17.1,17.1h61.6L1043.7,515.2z"/>
<polygon class="st8" points="1092.4,583.8 1050.3,542.2 1050.3,457.3 1052.1,457.3 1052.1,541.5 1093.6,582.5 "/>
<polygon class="st8" points="1053.7,541.7 968,541.7 966.6,540.3 1052.5,540.5 "/>
<path class="st25" d="M1248.7,499.2l-42.7-42.6v85.7l42.7,42.7"/>
<path class="st26" d="M1248.7,584.9l-42.7-42.7h-85.7l42.7,42.7H1248.7"/>
<path class="st25" d="M1120.3,456.6v85.7h85.3l0.4-0.4v-85.3H1120.3z M1163.2,499.4l-0.2,0.2v-0.4h0.4L1163.2,499.4z"/>
<polygon class="st8" points="1163.1,499 1121,456.8 1205.9,456.8 1248,499 "/>
<path class="st6" d="M1205.8,457.1l41.6,41.6h-84.2l-41.6-41.6H1205.8 M1206,456.6h-85.7l42.7,42.6h85.7L1206,456.6L1206,456.6z"/>
<path class="st6" d="M1248.7,499.2h-85.3l-0.4,0.4v85.3h85.7L1248.7,499.2z"/>
<path class="st8" d="M1120.3,456.6v85.7l42.7,42.7v-85.7L1120.3,456.6z"/>
<rect x="1163.8" y="500" class="st8" width="84.1" height="84.1"/>
<path class="st6" d="M1247.1,500.8v82.6h-82.6v-82.6H1247.1 M1248.6,499.2h-85.3l-0.4,0.4v85.3h85.7V499.2z"/>
<path class="st6" d="M1163,584.6c-0.2,0-0.4-0.1-0.6-0.2l-42.3-42.2v-85.8l43.7,42.4c0.3,0.3,0.3,0.9,0,1.2c-0.3,0.3-0.9,0.3-1.2,0
	c0,0,0,0,0,0l-40.8-39.5v81l41.8,41.7c0.3,0.3,0.3,0.9,0,1.2c0,0,0,0,0,0C1163.4,584.5,1163.2,584.6,1163,584.6z"/>
<polygon class="st6" points="1207.2,457.8 1121.4,457.8 1120,456.4 1206,456.6 "/>
<polygon class="st6" points="1206.3,456.8 1248.7,499.2 1248.7,501.2 1205.7,457.6 "/>
<path class="st6" d="M1198.2,515.8v34.3l17.1,17.1v-34.3L1198.2,515.8z"/>
<path class="st6" d="M1136.5,515.8v34.3l17.1,17.1v-34.3L1136.5,515.8z"/>
<path class="st6" d="M1198.2,515.8h-61.7l17.1,17.1h61.6L1198.2,515.8z"/>
<polygon class="st6" points="1246.9,584.4 1204.9,542.8 1205.1,456.6 1206.2,457.7 1206.6,542.1 1248.1,583.1 "/>
<polygon class="st6" points="1208.3,542.3 1122.5,542.3 1121.1,540.9 1207.1,541.1 "/>
<path class="st25" d="M951.4,505.1l-42.7-42.7v85.7l42.7,42.7"/>
<path class="st26" d="M951.4,590.8l-42.7-42.7H823l42.7,42.7H951.4"/>
<path class="st25" d="M823,462.5v85.7h85.3l0.4-0.4v-85.3H823z M865.9,505.3l-0.2,0.2v-0.4h0.4L865.9,505.3z"/>
<polygon class="st1" points="865.8,504.9 823.7,462.8 908.6,462.8 950.8,504.9 "/>
<path class="st6" d="M908.5,463l41.6,41.6h-84.2L824.3,463H908.5 M908.7,462.5H823l42.7,42.6h85.7L908.7,462.5L908.7,462.5z"/>
<path class="st6" d="M951.4,505.1h-85.3l-0.4,0.4v85.3h85.7V505.1z"/>
<path class="st1" d="M823,462.5v85.7l42.7,42.7v-85.7L823,462.5z"/>
<rect x="866.5" y="505.9" class="st1" width="84.1" height="84.1"/>
<path class="st6" d="M949.8,506.7v82.6h-82.6v-82.6H949.8 M951.4,505.1h-85.3l-0.4,0.4v85.3h85.7V505.1z"/>
<path class="st6" d="M865.7,590.6c-0.2,0-0.4-0.1-0.6-0.2l-42.3-42.2v-85.8l43.8,42.4c0.3,0.3,0.3,0.9,0,1.2c-0.3,0.3-0.9,0.3-1.2,0
	c0,0,0,0,0,0l-40.8-39.5v81l41.8,41.7c0.3,0.3,0.3,0.9,0,1.2C866.2,590.5,866,590.6,865.7,590.6L865.7,590.6z"/>
<polygon class="st6" points="909.9,463.7 824.2,463.7 822.8,462.3 908.7,462.5 "/>
<polygon class="st6" points="909,462.8 951.4,505.1 951.4,507.1 908.4,463.5 "/>
<path class="st3" d="M900.9,521.7V556l17.1,17.1v-34.3L900.9,521.7z"/>
<path class="st3" d="M839.2,521.7V556l17.1,17.1v-34.3L839.2,521.7z"/>
<path class="st3" d="M900.9,521.7h-61.7l17.1,17.1H918L900.9,521.7z"/>
<polygon class="st3" points="949.6,590.3 907.6,548.8 907.8,462.5 908.9,463.6 909.3,548 950.8,589.1 "/>
<polygon class="st6" points="911,548.2 825.2,548.2 823.8,546.9 909.8,547 "/>
<polygon class="st0" points="1348.2,595.3 1348.2,595.3 1301.5,548.6 "/>
<path class="st1" d="M1301.5,454.7v93.9l46.7,46.7h93.9v-93.9l-46.7-46.7H1301.5 M1405.5,575.8l-18.7-18.7v-18.8H1338v37.5
	l-18.7-18.7v-37.5h67.5l18.7,18.7V575.8z"/>
<rect x="1442.1" y="501.5" class="st0" width="0" height="93.9"/>
<polygon class="st2" points="1386.8,548.7 1386.8,557.2 1405.5,575.8 1405.5,538.3 1386.8,538.3 "/>
<polygon class="st3" points="1319.3,519.6 1338,538.3 1353.1,538.3 1386.8,538.3 1405.5,538.3 1386.8,519.6 "/>
<polygon class="st2" points="1319.3,538.3 1319.3,548.7 1319.3,557.2 1338,575.8 1338,538.3 1319.3,519.6 "/>
<path class="st46" d="M1344,525.5c1.3-0.1,2.6,0.4,3.5,1.2c0.9,1,1.3,2.4,1.2,3.7v1.5c0.1,1.4-0.3,2.7-1.2,3.7
	c-1,0.9-2.2,1.3-3.6,1.2h-4.2v-11.4H1344z M1346.5,534.7c0.6-0.8,0.9-1.7,0.8-2.7v-1.5c0.1-1-0.2-2-0.8-2.8c-0.6-0.6-1.5-1-2.5-0.9
	h-2.7v8.7h2.7C1344.9,535.6,1345.8,535.3,1346.5,534.7L1346.5,534.7z"/>
<path class="st46" d="M1351.2,530.5h5.6v1.3h-5.6v3.8h6.5v1.3h-8v-11.5h8v1.3h-6.5V530.5z"/>
<path class="st46" d="M1358.3,533.6h1.4c0,0.6,0.3,1.2,0.9,1.6c0.7,0.4,1.4,0.5,2.2,0.5c2,0,3-0.7,3-2c0-0.5-0.2-1-0.6-1.3
	c-0.5-0.4-1.1-0.6-1.7-0.6l-1.5-0.2c-2.2-0.3-3.3-1.3-3.3-3.1c0-0.9,0.4-1.8,1.1-2.4c0.9-0.6,2-0.9,3.1-0.8c1.1-0.1,2.1,0.2,3,0.8
	c0.7,0.6,1.2,1.5,1.2,2.4h-1.5c0-0.6-0.3-1.1-0.8-1.5c-0.6-0.4-1.3-0.5-2-0.5c-0.7,0-1.4,0.1-2.1,0.5c-0.5,0.3-0.7,0.8-0.7,1.4
	c0,0.5,0.2,0.9,0.5,1.2c0.5,0.3,1.1,0.5,1.7,0.6l1.6,0.2c2.3,0.3,3.4,1.3,3.4,3.2c0,1-0.4,1.9-1.2,2.5c-1,0.6-2.1,0.9-3.3,0.9
	c-1.1,0.1-2.2-0.2-3.2-0.9C1358.7,535.5,1358.3,534.6,1358.3,533.6z"/>
<path class="st46" d="M1370.1,533.8v3.1h-1.5v-11.4h1.5v6.4l5.9-6.4h1.9l-4.2,4.5l4.7,6.9h-1.8l-3.9-5.9L1370.1,533.8z"/>
<path class="st47" d="M1339.8,547.9h2.1c0,0.5,0.3,1,0.7,1.3c0.6,0.3,1.2,0.4,1.8,0.4c1.6,0,2.3-0.5,2.3-1.5c0-0.4-0.2-0.8-0.5-1
	c-0.5-0.3-1-0.4-1.5-0.5l-1.2-0.2c-2.3-0.3-3.5-1.3-3.5-3.2c0-1,0.4-1.9,1.2-2.5c0.9-0.7,2-1,3.2-0.9c1.1-0.1,2.1,0.3,3,0.9
	c0.8,0.6,1.2,1.5,1.2,2.5h-2.1c0-0.5-0.2-0.9-0.6-1.2c-1-0.5-2.2-0.5-3.2,0c-0.4,0.2-0.6,0.6-0.6,1.1c0,0.4,0.2,0.8,0.5,1
	c0.5,0.3,1,0.5,1.5,0.5l1.4,0.2c0.9,0.1,1.8,0.4,2.5,1c0.6,0.6,0.9,1.4,0.8,2.2c0.1,1-0.4,2-1.2,2.6c-1,0.7-2.2,1-3.4,0.9
	c-1.1,0.1-2.3-0.3-3.2-0.9C1340.2,549.9,1339.8,548.9,1339.8,547.9z"/>
<path class="st47" d="M1358.3,543.5c0.1,1-0.3,1.9-1.1,2.6c-0.9,0.7-2,1-3.1,0.9h-2.7v4.3h-2.2v-11.4h4.9c1.1-0.1,2.1,0.3,3,0.9
	C1357.9,541.5,1358.3,542.5,1358.3,543.5z M1355.6,542.2c-0.4-0.3-0.9-0.5-1.4-0.4h-2.8v3.3h2.8c1.2,0,1.8-0.5,1.8-1.6
	C1356.1,543,1356,542.5,1355.6,542.2L1355.6,542.2z"/>
<path class="st47" d="M1359.3,549.1l-0.8,2.2h-2.3l4.7-11.4h1.8l4.7,11.4h-2.3l-0.8-2.2H1359.3z M1361.7,542.7l-1.7,4.7h3.5
	L1361.7,542.7z"/>
<path class="st47" d="M1366.3,546.5v-1.8c-0.1-1.4,0.4-2.7,1.3-3.8c1-0.9,2.3-1.3,3.6-1.3c1.2-0.1,2.4,0.3,3.3,1
	c0.8,0.7,1.3,1.8,1.2,2.9v0.1h-2.2v-0.1c0-0.6-0.2-1.1-0.6-1.5c-0.5-0.4-1.1-0.6-1.8-0.6c-0.8,0-1.5,0.2-2,0.8
	c-0.5,0.7-0.7,1.6-0.7,2.4v1.7c-0.1,0.8,0.2,1.7,0.7,2.3c0.5,0.5,1.3,0.8,2,0.8c0.6,0,1.3-0.2,1.8-0.5c0.4-0.4,0.7-0.9,0.6-1.5v-0.1
	h2.2v0.1c0,1.1-0.4,2.2-1.3,2.9c-1,0.7-2.2,1.1-3.4,1c-1.3,0.1-2.6-0.4-3.6-1.3C1366.7,549.2,1366.2,547.8,1366.3,546.5z"/>
<path class="st47" d="M1378.4,544.6h5.1v1.9h-5.2v2.9h6v1.9h-8.2v-11.4h8.2v1.9h-6L1378.4,544.6z"/>
<g>
	<path class="st6" d="M1536.8,10.1v602.8H10.1V10.1H1536.8 M1546.8,0.1H0.1v622.8h1546.6V0.1L1546.8,0.1z"/>
</g>
</svg>
